<?xml version="1.0" standalone="no"?>
<!DOCTYPE svg PUBLIC "-//W3C//DTD SVG 20010904//EN"
 "http://www.w3.org/TR/2001/REC-SVG-20010904/DTD/svg10.dtd">
<svg version="1.0" xmlns="http://www.w3.org/2000/svg"
 width="260.000000pt" height="260.000000pt" viewBox="0 0 260.000000 260.000000"
 preserveAspectRatio="xMidYMid meet">
<metadata>
Created by potrace 1.11, written by Peter Selinger 2001-2013
</metadata>
<g transform="translate(0.000000,260.000000) scale(0.100000,-0.100000)"
fill="#000000" stroke="none">
<path d="M476 2571 c-9 -16 -12 -32 -8 -36 4 -5 2 -5 -4 -2 -6 3 -17 -6 -25
-21 -8 -15 -16 -29 -19 -32 -14 -13 -59 -134 -53 -143 4 -6 1 -7 -7 -2 -10 6
-12 4 -7 -8 3 -9 1 -17 -5 -19 -6 -2 -12 -12 -14 -21 -1 -9 2 -15 7 -11 5 3 6
10 3 16 -4 7 -2 8 4 4 6 -4 8 -14 5 -23 -5 -12 -3 -14 8 -7 8 5 17 9 21 9 3 0
10 4 15 9 5 5 3 6 -4 2 -7 -4 -13 -2 -13 3 0 6 9 11 20 11 14 0 18 5 13 18 -6
15 -5 16 13 2 10 -8 15 -10 11 -5 -4 5 3 15 15 23 14 8 16 11 5 8 -11 -3 -15
-2 -12 4 3 6 12 10 19 10 20 0 49 37 40 51 -4 8 -3 10 4 5 7 -4 12 -2 12 4 0
6 5 8 10 5 6 -3 10 1 10 9 0 9 5 16 10 16 6 0 20 10 31 21 17 17 23 19 30 8 6
-10 9 -11 9 -1 0 23 31 12 48 -18 9 -16 20 -30 25 -30 4 0 7 -5 7 -11 0 -5 -5
-7 -11 -3 -8 4 -8 1 -1 -12 10 -18 12 -26 12 -40 0 -4 7 -1 15 6 9 7 14 19 11
26 -3 8 0 11 10 7 8 -3 14 -1 12 3 -2 5 10 23 26 39 16 17 25 23 20 15 -5 -9
1 -5 12 8 16 18 23 21 27 11 5 -12 6 -12 6 0 1 11 4 11 18 0 14 -12 15 -12 9
-1 -7 11 -4 12 13 2 12 -6 18 -16 15 -22 -5 -7 -2 -9 9 -5 9 3 19 2 22 -4 4
-5 -1 -12 -9 -15 -9 -3 -16 -10 -16 -15 0 -4 7 -6 16 -2 14 5 14 2 -2 -23 -10
-16 -24 -36 -31 -45 -12 -14 -12 -17 1 -22 10 -4 13 -1 10 8 -4 10 0 13 16 10
18 -3 20 -2 10 10 -8 10 -8 15 1 21 8 5 9 3 4 -6 -6 -10 -4 -12 9 -7 10 4 20
7 22 7 3 0 2 6 -2 13 -4 6 -4 9 1 5 4 -4 15 -2 23 5 13 10 14 9 7 -3 -4 -8 7
-1 25 15 18 17 30 23 26 15 -4 -8 2 -4 13 10 11 14 21 21 21 15 1 -5 5 -2 9 8
4 10 9 17 12 15 3 -2 13 3 22 11 10 7 17 10 17 5 0 -4 7 1 16 12 10 13 17 15
20 7 3 -7 12 -9 21 -6 12 5 14 2 9 -8 -4 -8 0 -5 10 6 14 17 16 17 11 2 -4
-11 -1 -20 8 -23 8 -4 12 -10 9 -15 -3 -5 0 -9 5 -9 6 0 11 -5 11 -11 0 -5 -6
-7 -12 -3 -9 5 -9 2 1 -9 12 -16 8 -22 -12 -18 -5 1 -7 -4 -5 -11 6 -17 -30
-50 -45 -42 -7 4 -9 4 -5 -1 13 -14 -11 -45 -30 -39 -14 5 -15 4 -2 -5 13 -10
8 -15 -12 -12 -4 0 -5 -6 -2 -14 5 -13 8 -13 21 0 8 9 18 13 23 10 4 -3 14 3
21 12 12 14 12 16 0 8 -10 -5 -12 -4 -7 3 4 7 13 12 21 12 9 0 12 8 10 21 -4
18 -2 19 12 7 14 -11 16 -11 11 4 -4 10 -1 19 8 22 9 3 13 10 10 15 -3 5 1 12
10 15 8 3 13 10 9 15 -7 12 29 33 40 23 3 -4 5 0 3 8 -2 8 3 14 10 13 6 -2 12
3 12 10 0 8 4 7 10 -3 7 -11 10 -12 10 -2 0 10 4 9 16 -3 9 -9 23 -14 31 -10
10 3 13 1 10 -8 -3 -8 1 -14 9 -14 7 0 11 4 9 8 -3 4 2 10 11 13 10 4 13 2 8
-6 -4 -7 -3 -8 4 -4 7 4 12 13 12 21 0 8 8 12 20 10 11 -2 20 0 20 5 0 4 7 11
16 14 9 4 13 2 8 -5 -4 -8 0 -7 15 0 15 8 21 9 21 1 0 -6 5 -8 12 -4 7 5 9 2
5 -9 -4 -12 -2 -14 11 -10 15 6 16 5 2 -12 -9 -11 -10 -16 -2 -11 7 4 12 2 13
-6 0 -7 2 -21 4 -31 2 -10 -1 -14 -8 -10 -7 4 -8 0 -4 -11 4 -10 3 -15 -3 -11
-6 3 -10 -3 -10 -15 0 -12 -4 -19 -9 -15 -5 3 -13 0 -17 -6 -4 -7 -3 -9 4 -5
6 3 13 2 17 -4 3 -5 -1 -10 -9 -10 -23 0 -28 -16 -9 -31 9 -8 14 -9 10 -3 -9
15 19 38 34 28 8 -5 9 -3 5 5 -5 8 0 14 13 18 12 3 21 10 21 17 0 6 5 4 10 -4
9 -13 10 -13 10 0 0 8 9 21 20 27 17 11 18 10 13 -5 -3 -11 0 -9 11 6 10 12
24 22 32 22 8 0 14 5 14 10 0 6 9 10 21 10 11 0 18 4 15 9 -3 5 1 12 10 15 10
4 13 2 7 -7 -4 -6 5 -4 20 6 15 10 32 15 37 12 6 -3 10 -1 10 5 0 6 4 8 10 5
5 -3 10 -2 10 4 0 6 7 7 17 4 11 -4 14 -3 9 5 -4 8 -2 10 7 6 8 -3 18 0 22 6
4 6 16 8 27 4 15 -4 18 -3 13 7 -6 9 -3 10 10 5 14 -5 28 4 58 36 22 24 33 34
26 23 -13 -18 -13 -19 3 -6 10 7 15 17 12 22 -3 5 -345 9 -810 9 l-804 0 -14
-29z m18 -170 c3 -5 -2 -15 -12 -22 -15 -12 -16 -12 -5 2 7 9 10 19 6 22 -3 4
-4 7 0 7 3 0 8 -4 11 -9z"/>
<path d="M2585 2550 c3 -5 1 -10 -6 -10 -7 0 -9 -3 -6 -6 10 -11 -13 -45 -25
-38 -7 5 -9 0 -5 -15 3 -15 -1 -26 -16 -36 -12 -8 -17 -15 -12 -15 6 0 -3 -10
-20 -21 -19 -13 -23 -19 -10 -15 18 6 18 4 -2 -13 -13 -11 -23 -24 -23 -31 0
-6 -5 -8 -12 -4 -8 5 -9 2 -5 -9 4 -10 2 -16 -6 -14 -7 1 -11 -4 -9 -12 3 -12
1 -12 -14 0 -11 9 -15 9 -10 2 4 -7 0 -23 -8 -35 -11 -15 -16 -18 -16 -8 0 8
-6 4 -13 -10 -8 -14 -19 -24 -25 -23 -7 2 -11 0 -10 -5 4 -12 -152 -163 -162
-157 -6 3 -10 2 -10 -2 0 -5 -13 -8 -29 -7 -27 2 -66 -27 -54 -40 4 -3 1 -6
-5 -6 -6 0 -16 -10 -23 -21 -6 -12 -7 -19 -2 -16 5 4 10 0 10 -8 0 -8 -3 -13
-5 -10 -8 8 -34 -34 -28 -44 3 -5 -1 -12 -9 -15 -10 -4 -14 -14 -11 -32 4 -23
3 -24 -11 -12 -15 12 -15 11 -4 -9 10 -20 9 -23 -6 -24 -10 0 -13 -3 -6 -6 9
-3 10 -10 3 -24 -6 -10 -8 -19 -5 -19 11 0 35 28 35 41 0 8 4 8 16 -1 12 -11
15 -11 12 0 -2 8 3 15 10 16 25 3 27 5 13 13 -12 8 -9 11 12 16 15 4 27 11 27
15 0 11 63 7 76 -5 7 -5 9 -14 6 -20 -3 -5 3 -3 13 5 11 9 16 10 11 3 -13 -23
21 -14 38 10 9 12 14 15 11 7 -4 -8 0 -7 9 4 8 10 13 23 10 28 -3 5 2 8 12 6
11 -2 18 2 16 10 -1 6 2 12 8 12 11 0 70 56 70 67 0 11 51 53 64 53 6 0 4 5
-4 10 -13 8 -12 10 3 10 10 0 16 4 12 9 -3 6 4 15 15 21 11 6 18 15 15 21 -4
5 -1 9 4 9 6 0 11 7 11 15 0 8 5 15 11 15 6 0 9 7 6 15 -4 8 -1 17 5 21 7 5 8
2 3 -6 -6 -9 -4 -11 4 -6 7 5 10 15 6 24 -3 9 -3 13 1 9 9 -9 45 33 38 44 -3
5 2 6 10 3 14 -5 16 12 16 140 0 96 -4 146 -11 146 -5 0 -7 -4 -4 -10z"/>
<path d="M252 2454 c2 -10 -3 -19 -11 -22 -8 -3 -11 0 -7 7 4 6 5 11 2 11 -3
0 -10 -10 -17 -21 -9 -17 -8 -20 3 -15 7 4 5 1 -6 -6 -10 -7 -28 -21 -40 -31
-20 -16 -20 -17 -1 -11 15 4 13 1 -5 -10 -14 -9 -19 -15 -11 -16 11 0 10 -4
-5 -16 -10 -8 -13 -13 -6 -9 14 7 17 -11 2 -20 -5 -3 -10 -12 -9 -18 0 -9 2
-9 6 1 2 6 9 12 15 12 6 0 4 -8 -5 -18 -10 -10 -14 -23 -10 -27 5 -5 0 -3 -10
4 -15 12 -17 12 -11 -4 4 -10 1 -21 -7 -26 -12 -7 -12 -9 1 -9 9 -1 6 -6 -10
-16 -14 -8 -18 -13 -9 -11 9 3 16 -1 16 -8 0 -8 -5 -13 -11 -12 -5 1 -10 -8
-11 -20 0 -12 -4 -25 -9 -30 -5 -5 -6 -3 -2 5 10 18 1 15 -15 -5 -10 -11 -10
-14 -2 -9 16 9 16 5 1 -31 -6 -15 -13 -36 -14 -45 -2 -10 -5 -23 -6 -29 -2 -6
4 -14 12 -16 13 -4 13 -3 0 6 -14 10 -7 16 14 12 5 -1 3 5 -4 14 -11 13 -10
14 5 9 14 -6 16 -4 10 7 -7 11 -6 12 6 2 13 -10 19 -7 38 17 12 17 19 35 16
40 -3 6 1 7 9 4 11 -4 16 0 16 11 0 9 5 13 10 10 6 -3 10 -2 10 4 0 5 -6 12
-12 14 -10 4 -10 6 0 6 10 1 10 4 0 15 -7 8 -17 11 -23 8 -5 -2 -4 1 3 9 6 7
12 17 12 22 0 4 -6 5 -12 1 -7 -4 -2 4 12 19 14 14 25 34 26 44 0 10 6 31 13
47 6 16 9 31 7 34 -3 2 4 16 14 30 11 13 20 32 20 42 0 9 3 20 7 24 11 11 12
36 2 36 -6 0 -9 -7 -7 -16z m-68 -203 c3 -5 -2 -15 -12 -22 -15 -12 -16 -12
-5 2 7 9 10 19 6 22 -3 4 -4 7 0 7 3 0 8 -4 11 -9z m-44 -175 c0 -2 -8 -10
-17 -17 -16 -13 -17 -12 -4 4 13 16 21 21 21 13z"/>
<path d="M2520 2460 c-9 -6 -10 -10 -3 -10 6 0 15 5 18 10 8 12 4 12 -15 0z"/>
<path d="M2124 2418 c3 -10 1 -18 -5 -18 -6 0 -9 -7 -6 -15 4 -8 1 -17 -5 -21
-7 -5 -8 -2 -4 7 4 8 0 5 -8 -5 -20 -25 -20 -32 -1 -40 8 -3 14 -2 14 2 -3 21
3 32 18 32 9 0 13 3 10 7 -4 3 1 15 10 26 10 11 13 17 6 14 -6 -4 -17 1 -23
10 -11 17 -11 17 -6 1z"/>
<path d="M1874 2343 c4 -8 1 -13 -8 -13 -9 0 -16 -5 -16 -11 0 -6 -7 -9 -15
-5 -10 3 -15 -1 -15 -12 0 -15 -2 -15 -10 -2 -9 14 -15 6 -10 -15 1 -5 -2 -7
-6 -3 -4 4 -14 2 -22 -5 -13 -10 -15 -9 -8 3 4 8 1 7 -8 -4 -9 -11 -20 -15
-28 -10 -9 6 -9 3 1 -10 8 -9 10 -16 5 -15 -13 3 -48 -13 -56 -25 -5 -7 -8 -7
-8 2 0 8 -6 6 -18 -5 -11 -10 -17 -22 -14 -28 3 -5 2 -7 -3 -3 -4 4 -15 2 -23
-5 -13 -10 -14 -9 -7 2 6 10 4 12 -4 7 -7 -5 -10 -14 -7 -22 3 -8 0 -11 -10
-7 -7 3 -14 -1 -14 -8 0 -7 -3 -10 -6 -6 -4 3 -15 -4 -26 -16 -11 -12 -16 -15
-12 -7 4 9 -2 7 -13 -5 -11 -11 -19 -23 -16 -27 2 -4 -4 -5 -13 -1 -11 4 -15
2 -11 -4 4 -6 -5 -14 -20 -18 -21 -5 -24 -8 -12 -16 12 -7 11 -9 -3 -9 -10 0
-18 -5 -18 -11 0 -5 -4 -7 -10 -4 -5 3 -10 1 -10 -5 0 -6 -4 -8 -10 -5 -5 3
-10 1 -10 -4 0 -6 -8 -11 -17 -11 -15 0 -16 -2 -3 -10 13 -8 12 -10 -3 -10
-11 0 -15 -4 -11 -12 4 -7 3 -8 -5 -4 -13 8 -44 -18 -33 -28 3 -4 -1 -4 -11 0
-11 4 -19 0 -23 -10 -3 -9 -15 -16 -26 -16 -15 0 -18 -5 -14 -16 5 -14 4 -15
-9 -4 -12 10 -15 9 -15 -6 0 -15 -2 -16 -9 -5 -7 11 -9 11 -14 0 -4 -10 -6
-10 -6 -1 -1 6 -7 12 -14 12 -13 0 -43 29 -62 59 -5 10 -4 12 3 7 7 -4 12 -2
12 3 0 6 -6 11 -12 11 -8 0 -9 3 -3 8 6 4 10 13 11 20 2 29 5 33 16 26 7 -5 8
-3 4 5 -5 7 0 19 10 27 11 9 13 13 7 9 -7 -3 -13 -1 -13 4 0 6 4 11 10 11 5 0
6 7 3 17 -4 11 -3 14 5 9 12 -7 13 -6 17 32 2 21 1 22 -16 6 -10 -9 -21 -14
-26 -11 -11 7 -34 -19 -25 -29 4 -4 1 -4 -7 1 -8 4 -17 2 -22 -6 -6 -10 -9
-11 -9 -1 0 6 -5 12 -11 12 -5 0 -8 -3 -6 -7 2 -5 -8 -19 -21 -32 -21 -19 -24
-20 -19 -5 7 18 6 18 -7 2 -7 -10 -19 -18 -25 -18 -7 0 -10 -4 -7 -8 3 -5 -5
-8 -17 -7 -12 1 -28 -2 -35 -8 -7 -6 -12 -6 -11 -1 4 23 -3 33 -22 29 -18 -4
-19 -2 -7 12 11 14 11 16 -1 8 -11 -6 -13 -2 -9 17 3 15 -2 35 -12 49 l-18 22
2 -24 c1 -20 -3 -24 -30 -24 -21 0 -31 -5 -30 -15 1 -8 -6 -15 -14 -15 -8 0
-15 -9 -15 -20 0 -15 6 -19 22 -17 12 2 24 -2 28 -8 3 -6 11 -7 17 -4 6 4 5
-3 -2 -16 -8 -15 -8 -20 -1 -16 7 4 11 -1 11 -13 0 -11 4 -22 10 -26 5 -3 7
-12 4 -20 -4 -8 -10 -12 -15 -9 -5 3 -4 -7 1 -22 9 -22 8 -25 -5 -20 -11 4
-14 2 -8 -7 14 -22 12 -39 -3 -33 -10 4 -13 2 -7 -7 11 -18 12 -37 2 -37 -6 0
-8 -4 -4 -9 3 -5 0 -13 -6 -16 -5 -4 -8 -13 -5 -20 2 -7 -2 -16 -9 -19 -9 -3
-12 -12 -8 -22 5 -15 7 -15 15 0 5 9 14 13 20 10 8 -5 9 -1 4 11 -5 15 -4 16
9 5 11 -9 15 -9 15 -1 0 7 5 9 12 5 8 -5 9 -2 4 11 -5 15 -4 16 8 6 11 -9 17
-8 29 3 8 8 17 12 21 9 3 -4 6 0 6 8 0 8 9 15 19 15 11 0 17 -5 15 -11 -3 -5
2 -1 11 10 9 11 25 19 37 17 15 -3 18 0 12 10 -6 10 -5 11 7 1 11 -9 20 -8 39
7 29 22 44 26 34 8 -4 -7 8 0 27 17 19 16 28 23 22 15 -21 -23 -15 -35 7 -15
20 18 21 18 14 0 -5 -13 -4 -16 5 -11 6 4 18 2 26 -4 8 -6 19 -9 26 -5 7 5 9
1 5 -12 -3 -10 1 -28 9 -39 18 -24 19 -38 3 -28 -8 5 -7 0 2 -11 12 -15 12
-17 1 -10 -11 6 -13 4 -8 -9 4 -10 1 -19 -8 -22 -7 -3 -11 -12 -9 -19 3 -7 0
-16 -7 -21 -8 -5 -10 -3 -5 7 4 8 1 5 -8 -5 -8 -10 -13 -23 -9 -29 3 -6 2 -7
-4 -4 -11 7 -47 -28 -56 -56 -4 -10 -11 -16 -16 -13 -8 6 -26 -21 -23 -36 1
-4 -6 -24 -15 -45 -9 -21 -16 -42 -15 -46 1 -4 -5 -10 -13 -13 -8 -4 -15 -13
-15 -21 0 -10 -6 -13 -16 -9 -15 6 -15 4 -3 -11 8 -10 9 -14 2 -10 -14 8 -37
-26 -25 -38 4 -3 0 -5 -8 -3 -8 2 -15 -1 -15 -7 -4 -25 -18 -44 -29 -38 -6 4
-4 -2 4 -12 9 -11 10 -16 3 -11 -9 5 -13 1 -13 -13 0 -11 -5 -23 -10 -26 -6
-4 -8 -10 -5 -15 3 -4 -3 -11 -12 -14 -15 -6 -15 -8 -3 -16 11 -7 11 -10 2
-10 -7 0 -29 -17 -49 -37 -20 -21 -33 -32 -28 -24 6 10 4 12 -4 7 -7 -5 -10
-14 -7 -22 3 -8 0 -11 -8 -8 -7 3 -16 -2 -19 -10 -4 -9 -11 -16 -17 -16 -6 0
-8 5 -4 12 4 7 3 8 -4 4 -6 -4 -9 -13 -5 -22 3 -8 1 -14 -5 -12 -6 2 -18 -6
-27 -17 -9 -11 -14 -14 -10 -8 4 8 1 11 -9 7 -9 -3 -12 -12 -9 -21 4 -11 2
-14 -5 -9 -7 4 -15 0 -18 -9 -5 -12 -10 -13 -20 -4 -10 8 -12 7 -9 -10 3 -15
0 -18 -12 -14 -11 4 -14 2 -9 -5 7 -11 -13 -17 -38 -13 -5 1 -4 -4 3 -13 14
-17 5 -24 -26 -21 -12 1 -20 -2 -17 -6 2 -4 -6 -15 -18 -23 -12 -9 -18 -16
-13 -16 6 0 2 -7 -8 -14 -12 -9 -14 -16 -8 -21 6 -3 11 -1 11 6 0 7 3 10 6 6
3 -3 17 -2 30 3 17 7 24 6 24 -3 0 -8 4 -7 10 3 5 8 10 11 10 6 0 -5 7 -3 15
4 12 10 15 10 15 -1 1 -10 4 -9 11 3 5 10 16 15 24 12 8 -4 15 -1 15 6 0 6 5
8 10 5 6 -3 10 -2 10 3 0 5 11 8 26 6 18 -2 23 1 15 10 -7 8 -5 12 9 12 10 0
16 -5 13 -11 -4 -5 4 -1 17 10 13 11 20 14 15 6 -5 -9 1 -8 18 4 14 9 30 17
34 18 4 1 7 5 6 9 -2 4 4 5 12 2 8 -4 23 -3 33 1 28 12 52 13 52 1 0 -6 4 -5
9 2 7 11 9 10 15 -3 4 -11 12 -14 26 -10 15 5 18 3 14 -9 -3 -8 2 -19 13 -24
22 -12 83 10 83 30 0 9 3 9 10 -2 7 -11 10 -11 10 -2 0 7 4 11 9 8 5 -3 12 1
15 10 4 10 14 14 26 11 13 -3 18 -1 13 6 -4 6 0 8 9 4 9 -3 21 0 27 6 6 6 11
7 11 3 0 -5 6 -3 14 3 11 9 16 9 22 0 4 -8 3 -9 -4 -5 -7 4 -12 2 -12 -5 0 -7
8 -9 21 -6 15 4 19 2 15 -8 -3 -10 0 -12 11 -8 13 5 14 3 3 -18 -12 -21 -11
-22 2 -12 12 10 15 10 15 -2 0 -8 -3 -15 -7 -15 -4 0 -6 -11 -5 -24 2 -19 -1
-23 -13 -19 -10 4 -13 2 -8 -5 4 -7 2 -12 -4 -12 -7 0 -10 -6 -7 -14 4 -9 0
-12 -13 -9 -28 7 -33 -14 -8 -38 13 -12 17 -19 11 -15 -9 5 -11 2 -7 -8 3 -9
9 -14 14 -11 4 2 7 -9 6 -25 -1 -19 -6 -30 -16 -30 -13 0 -13 -1 0 -10 8 -5
10 -10 4 -10 -17 0 -23 -44 -9 -69 6 -12 13 -19 16 -17 3 3 5 -3 5 -13 0 -10
-5 -17 -12 -14 -7 2 -10 -5 -9 -21 2 -14 -7 -39 -20 -56 -13 -18 -21 -38 -18
-46 3 -9 0 -14 -8 -12 -8 2 -13 -3 -11 -10 1 -6 -3 -12 -9 -12 -6 0 -8 -7 -5
-16 3 -8 2 -12 -4 -9 -6 3 -10 1 -10 -4 0 -6 4 -11 9 -11 5 0 12 -7 15 -16 3
-8 2 -12 -4 -9 -6 3 -7 -1 -4 -9 3 -9 9 -14 13 -11 4 2 8 -2 8 -10 0 -8 -3
-12 -7 -10 -4 2 -7 -9 -8 -25 0 -16 6 -31 14 -34 8 -3 13 -2 10 3 -9 13 25 23
39 11 8 -6 16 -6 25 3 10 9 11 9 6 0 -5 -9 -2 -11 8 -7 9 3 13 11 9 18 -4 6 1
5 10 -3 9 -7 17 -9 17 -3 0 5 9 8 20 5 11 -3 20 -9 20 -14 0 -5 5 -9 10 -9 6
0 9 3 8 8 -2 4 2 8 7 10 6 1 10 -4 10 -10 1 -7 6 -12 13 -10 7 1 11 -3 10 -10
-4 -17 55 -16 70 2 8 8 11 9 7 3 -4 -9 1 -13 14 -13 12 0 21 5 21 11 0 6 9 9
20 6 11 -3 20 0 20 5 0 7 5 6 14 -1 10 -8 16 -8 25 2 6 8 7 18 3 22 -4 5 0 4
8 -1 18 -10 60 -6 77 7 7 7 14 6 18 -1 5 -8 11 -8 19 -1 7 6 16 8 20 4 3 -4
12 -8 19 -9 7 -1 21 -6 31 -10 12 -5 17 -4 13 3 -4 6 3 8 18 5 14 -2 25 -9 25
-14 0 -5 5 -6 10 -3 6 3 10 2 10 -4 0 -6 6 -8 14 -5 8 3 19 -3 25 -15 6 -11
17 -18 25 -15 7 3 16 -2 20 -11 3 -10 13 -15 20 -12 8 3 17 -1 20 -9 3 -8 15
-14 26 -14 14 0 19 -4 14 -12 -4 -6 -3 -8 4 -4 6 3 17 1 24 -6 23 -22 52 -35
66 -31 6 3 10 8 8 12 -3 4 7 7 22 7 18 -1 26 4 24 13 -3 12 0 12 12 1 12 -9
16 -10 16 0 0 7 7 10 15 6 9 -3 18 1 22 10 3 8 12 13 19 10 8 -3 14 -1 14 4 0
5 7 6 17 3 11 -4 14 -3 9 5 -5 8 -2 10 8 6 9 -3 16 -1 16 5 0 6 7 11 15 11 8
0 24 9 34 19 11 11 23 16 27 13 4 -4 4 1 1 11 -4 10 -3 16 3 12 5 -3 14 4 20
15 6 11 16 17 22 14 7 -4 8 -3 4 4 -4 7 -2 12 4 12 6 0 9 4 5 9 -3 5 3 12 14
16 10 3 21 15 24 25 3 13 1 18 -6 13 -7 -3 -4 3 6 14 16 18 16 21 2 33 -12 10
-13 16 -4 26 6 8 8 14 3 14 -5 0 -2 4 6 10 12 7 12 12 -4 28 -13 15 -14 22 -5
28 8 5 10 3 4 -6 -5 -9 -4 -11 4 -6 6 4 9 12 5 17 -10 16 -11 69 -2 69 5 0 4
9 -2 19 -7 14 -7 22 2 27 7 5 8 3 3 -6 -5 -9 -4 -11 4 -6 8 6 9 12 2 20 -7 9
-7 16 1 24 9 9 9 12 -1 12 -8 0 -10 7 -5 23 4 12 8 31 10 43 2 20 6 31 33 83
10 19 10 22 -1 16 -7 -3 -6 -1 3 7 12 10 16 33 16 92 0 71 -1 77 -14 60 -8
-10 -17 -18 -21 -18 -16 3 -33 -9 -28 -21 3 -8 -2 -11 -15 -8 -13 4 -19 0 -19
-11 0 -14 -24 -22 -53 -17 -5 1 -6 -3 -2 -9 3 -5 1 -10 -5 -10 -6 0 -9 -4 -5
-9 3 -6 -6 -8 -21 -5 -25 5 -26 3 -13 -12 9 -11 9 -15 2 -10 -7 4 -21 2 -30
-3 -10 -6 -14 -11 -8 -11 18 0 -65 -40 -84 -40 -27 0 -75 27 -62 35 6 3 11 11
11 16 0 6 -4 8 -9 4 -5 -3 -12 -1 -16 5 -3 5 0 10 7 10 8 0 9 3 3 8 -15 10
-17 32 -3 32 6 0 8 3 5 7 -4 3 -1 13 6 21 10 13 9 14 -3 8 -8 -4 -4 2 10 13
17 14 20 21 10 21 -13 0 -13 2 0 9 8 6 18 7 24 4 5 -3 6 -1 2 6 -5 7 5 24 26
42 23 20 27 27 13 23 -20 -7 -20 -7 0 9 11 8 24 13 30 9 5 -3 4 1 -3 10 -11
13 -10 16 5 14 12 -1 17 5 15 17 -2 10 3 17 12 17 8 0 18 5 22 12 5 7 3 8 -6
3 -9 -5 -11 -4 -6 3 4 7 14 12 22 12 12 0 12 4 4 20 -13 25 -30 26 -30 3 0
-15 -2 -16 -10 -3 -9 13 -14 8 -12 -11 1 -4 -7 -5 -17 -2 -11 3 -28 -4 -40
-16 -12 -12 -26 -21 -32 -21 -5 0 -7 -4 -4 -10 4 -6 -1 -7 -11 -3 -13 5 -16 3
-11 -10 4 -11 2 -14 -9 -10 -8 3 -22 -4 -32 -15 -9 -12 -24 -22 -32 -24 -8 -2
-21 -11 -28 -20 -7 -10 -28 -25 -47 -34 -21 -9 -32 -21 -28 -28 3 -6 3 -8 -2
-4 -11 10 -47 -11 -40 -23 4 -5 -1 -9 -10 -9 -9 0 -13 -5 -9 -11 4 -7 -1 -7
-16 1 -12 7 -20 8 -16 2 8 -13 -19 -23 -41 -15 -16 6 -16 5 -4 -11 12 -14 8
-13 -22 4 -20 12 -37 24 -37 27 0 2 5 1 10 -2 6 -3 10 -1 10 4 0 6 -6 11 -13
11 -12 0 -14 14 -8 63 1 5 5 6 10 2 5 -3 13 0 17 6 4 7 3 9 -4 5 -6 -3 -13 -2
-17 4 -3 5 2 10 11 10 10 0 14 3 11 6 -4 4 6 18 21 32 15 13 21 21 15 18 -9
-5 -11 -2 -7 8 3 9 10 13 15 10 5 -3 9 2 9 11 0 8 7 18 16 22 8 3 13 12 10 19
-3 8 0 11 10 7 7 -3 14 0 14 7 0 6 6 8 13 4 6 -4 9 -4 5 1 -9 10 10 47 21 40
5 -3 12 2 15 11 3 8 11 12 17 8 8 -4 9 -3 5 5 -4 6 0 14 8 17 9 3 13 10 10 15
-3 5 -2 9 3 8 20 -3 34 2 28 11 -3 6 1 10 9 10 9 0 16 6 16 14 0 8 9 18 20 21
11 3 20 13 20 21 0 8 5 12 11 9 5 -4 15 6 21 23 6 16 21 34 32 39 12 5 16 8 9
7 -7 -2 -10 3 -6 12 3 8 8 13 10 10 7 -6 33 19 33 31 0 5 7 18 15 29 15 19 15
19 10 -1 -3 -11 2 -5 10 13 9 19 20 30 26 26 7 -4 7 0 0 15 -14 25 -26 28 -17
4 6 -15 5 -16 -11 -1 -10 8 -24 13 -32 10 -10 -3 -12 0 -8 11 3 9 -1 18 -9 21
-9 3 -12 11 -8 18 4 6 -4 3 -18 -8 -15 -10 -26 -21 -26 -24 1 -19 -4 -30 -13
-30 -5 0 -7 5 -3 12 4 7 3 8 -5 4 -9 -6 -9 -11 0 -22 7 -9 8 -14 2 -12 -11 3
-64 -48 -57 -55 3 -2 -2 -10 -11 -17 -13 -11 -15 -10 -10 6 4 10 -1 6 -10 -9
-9 -16 -21 -25 -27 -21 -8 5 -9 1 -4 -12 4 -10 4 -15 0 -11 -4 4 -14 -2 -22
-14 -8 -11 -20 -18 -29 -15 -8 3 -11 1 -8 -4 3 -6 1 -10 -5 -10 -6 0 -8 -4 -5
-10 4 -6 -1 -7 -11 -3 -11 4 -15 2 -11 -4 4 -6 -3 -13 -14 -16 -11 -3 -23 -15
-26 -26 -4 -17 -8 -19 -20 -10 -8 7 -13 8 -11 3 4 -14 -50 -67 -62 -59 -6 3
-10 3 -9 -2 4 -26 -1 -35 -15 -24 -11 9 -18 8 -30 -4 -11 -11 -16 -12 -16 -4
0 7 -3 10 -6 6 -4 -3 -15 4 -25 16 -18 20 -19 20 -12 2 3 -11 3 -17 -1 -14
-17 15 -28 147 -13 156 6 3 7 1 3 -5 -4 -7 -2 -12 3 -12 14 0 14 6 1 31 -9 16
-7 21 12 29 13 5 16 9 9 9 -12 1 -12 4 -3 13 9 9 7 15 -6 25 -13 10 -14 13 -2
11 10 -2 15 5 14 20 -1 12 3 22 9 22 5 0 4 6 -3 15 -10 12 -8 13 10 10 18 -3
20 -2 10 10 -8 10 -9 15 -2 15 6 0 9 7 6 15 -4 8 -1 15 6 15 6 0 8 5 5 10 -3
6 -1 10 5 10 6 0 8 5 5 10 -10 16 5 51 18 43 7 -4 6 0 -2 10 -11 14 -11 18 4
23 11 5 13 9 5 14 -6 3 -8 14 -4 23 3 9 9 15 13 12 12 -7 10 28 -2 43 -9 11
-13 11 -24 -4 -12 -17 -13 -17 -13 0 0 9 -4 14 -10 11 -5 -3 -10 0 -10 8 0 8
-7 17 -15 21 -9 3 -12 12 -8 22 4 11 2 15 -4 11 -12 -8 -12 11 0 31 5 7 3 12
-5 12 -9 0 -9 3 2 10 8 5 11 10 6 10 -6 0 -1 7 10 16 10 8 13 13 7 9 -7 -3
-13 -1 -13 4 0 6 4 11 10 11 5 0 7 7 4 15 -4 8 -2 15 3 15 5 0 10 15 11 33 2
17 7 34 12 35 6 2 10 12 10 23 0 10 5 19 10 19 6 0 10 5 10 11 0 5 -4 7 -10 4
-6 -3 -7 1 -4 9 3 9 10 14 15 11 4 -3 6 4 4 15 -3 14 1 20 13 20 13 0 14 2 4
9 -11 7 -11 10 0 22 36 39 39 46 21 60 -11 9 -14 10 -9 2z m16 -17 c0 -2 -8
-10 -17 -17 -16 -13 -17 -12 -4 4 13 16 21 21 21 13z m-830 -470 c0 -2 -8 -10
-17 -17 -16 -13 -17 -12 -4 4 13 16 21 21 21 13z m188 -61 c-3 -3 -9 2 -12 12
-6 14 -5 15 5 6 7 -7 10 -15 7 -18z m1016 -133 c3 -5 -1 -9 -9 -9 -8 0 -12 4
-9 9 3 4 7 8 9 8 2 0 6 -4 9 -8z m-1094 -36 c0 -2 -8 -10 -17 -17 -16 -13 -17
-12 -4 4 13 16 21 21 21 13z m1140 -441 c-7 -9 -15 -13 -19 -10 -3 3 1 10 9
15 21 14 24 12 10 -5z m-1750 -289 c0 -2 -8 -10 -17 -17 -16 -13 -17 -12 -4 4
13 16 21 21 21 13z m708 -281 c-3 -3 -9 2 -12 12 -6 14 -5 15 5 6 7 -7 10 -15
7 -18z"/>
<path d="M2059 2299 c-12 -24 3 -50 16 -28 5 8 4 10 -3 5 -7 -4 -12 -2 -12 3
0 6 8 11 18 11 13 0 14 2 3 9 -11 7 -11 9 0 14 9 4 10 6 2 6 -7 1 -17 -8 -24
-20z"/>
<path d="M2033 2249 c-2 -23 3 -25 10 -4 4 8 3 16 -1 19 -4 3 -9 -4 -9 -15z"/>
<path d="M530 2238 c0 -10 -10 -20 -25 -24 -14 -3 -23 -10 -20 -14 3 -4 -4
-10 -15 -13 -11 -3 -20 -9 -19 -14 3 -19 -2 -25 -15 -14 -11 9 -15 8 -20 -4
-4 -11 -2 -14 7 -9 7 4 9 3 4 -2 -5 -5 -13 -10 -18 -10 -5 -1 -13 -2 -19 -3
-5 0 -10 -8 -10 -17 0 -8 -4 -13 -9 -9 -6 3 -14 -2 -19 -11 -5 -9 -12 -15 -15
-15 -24 3 -31 0 -17 -9 12 -8 12 -10 1 -10 -7 0 -24 -12 -37 -26 -14 -14 -29
-22 -36 -18 -7 4 -8 3 -4 -5 4 -6 -7 -25 -26 -44 -18 -17 -31 -35 -30 -40 1
-4 -3 -6 -10 -5 -7 2 -17 -7 -22 -19 -6 -12 -24 -28 -40 -35 -16 -6 -24 -14
-18 -16 7 -2 10 -8 7 -12 -3 -5 -12 -7 -21 -3 -8 3 -14 1 -12 -4 2 -5 -11 -22
-27 -38 -17 -17 -22 -23 -10 -15 12 8 8 3 -7 -13 l-28 -27 0 -318 c1 -248 4
-319 14 -319 6 0 13 9 14 20 0 12 8 24 16 29 8 5 13 15 10 22 -3 8 0 17 5 21
6 3 8 11 5 17 -4 6 -3 8 3 5 5 -3 20 8 33 26 14 18 17 26 7 18 -25 -20 -21 -5
6 20 12 12 15 19 7 15 -8 -4 -4 2 10 14 14 12 19 19 11 15 -9 -5 -8 1 4 19 9
14 20 24 24 21 4 -2 8 2 8 10 0 8 -4 12 -9 9 -4 -3 -5 2 -2 10 3 9 10 13 15
10 5 -3 9 2 9 10 0 8 10 25 23 37 20 20 20 21 2 15 -17 -5 -18 -4 -4 6 9 7 14
19 11 27 -3 8 0 11 6 7 12 -7 25 22 15 36 -3 7 -1 8 5 4 7 -4 12 -1 12 9 0 22
35 66 45 57 5 -4 5 1 2 10 -3 9 1 22 9 29 12 10 13 9 8 -7 -4 -10 -4 -16 0
-12 4 3 9 14 11 25 1 10 7 17 13 16 6 -1 9 5 8 15 -2 12 -13 17 -39 17 -19 0
-39 4 -44 9 -5 5 -2 6 7 2 12 -6 12 -5 -1 6 -16 14 -22 78 -7 78 5 0 6 5 3 10
-3 6 -1 10 6 10 7 0 10 3 6 6 -3 3 11 21 31 40 20 19 33 34 29 34 -5 0 -1 7 7
16 9 8 16 22 16 30 0 9 5 12 11 8 7 -4 10 -1 7 7 -3 8 1 19 9 24 8 6 15 20 16
32 0 12 6 21 11 20 6 -1 15 8 21 21 5 12 15 20 21 18 6 -2 11 5 10 17 -1 12 7
28 16 35 10 7 16 18 13 23 -4 5 -1 9 4 9 6 0 10 3 9 8 -2 10 14 46 23 52 4 3
4 12 -1 20 -8 13 -10 12 -10 -2z m-180 -542 c0 -2 -7 -7 -16 -10 -8 -3 -12 -2
-9 4 6 10 25 14 25 6z"/>
<path d="M718 2053 c7 -3 16 -2 19 1 4 3 -2 6 -13 5 -11 0 -14 -3 -6 -6z"/>
<path d="M662 1873 c-7 -10 -10 -12 -7 -5 3 6 2 12 -3 12 -6 0 -12 -7 -16 -15
-3 -8 -15 -15 -26 -15 -11 0 -20 -6 -20 -12 0 -10 -2 -10 -8 -1 -4 7 -13 9
-21 4 -8 -5 -10 -14 -6 -21 6 -9 4 -11 -4 -6 -8 6 -11 2 -9 -10 2 -12 -2 -18
-10 -16 -9 2 -11 -2 -6 -10 13 -20 13 -38 1 -35 -7 1 -12 -10 -12 -25 1 -15
-4 -26 -10 -25 -5 1 -9 -6 -9 -15 1 -10 -2 -18 -8 -18 -5 0 -6 -5 -2 -12 5 -7
2 -9 -8 -6 -11 5 -14 0 -12 -18 1 -13 -3 -27 -8 -31 -7 -4 -8 -1 -4 8 4 8 1 6
-7 -3 -8 -10 -17 -15 -21 -11 -4 4 -4 0 0 -10 4 -11 1 -17 -9 -17 -19 0 -30
-27 -14 -34 7 -2 6 -5 -4 -5 -18 -1 -42 -47 -33 -63 4 -6 2 -8 -3 -5 -6 4 -14
0 -17 -9 -4 -10 -2 -13 6 -8 7 5 8 3 4 -5 -5 -7 -15 -10 -24 -6 -9 3 -13 3 -9
-1 4 -4 1 -14 -6 -23 -11 -14 -10 -15 8 -1 19 14 20 14 2 -6 -9 -11 -14 -24
-10 -28 5 -4 4 -7 -2 -6 -21 5 -29 -1 -15 -10 13 -8 13 -10 -2 -10 -12 0 -16
-6 -13 -21 3 -16 0 -19 -12 -15 -11 4 -14 2 -10 -9 4 -8 -1 -18 -9 -23 -9 -5
-15 -11 -14 -13 4 -11 -21 -59 -31 -59 -7 0 -9 -3 -6 -7 4 -3 1 -13 -6 -21
-10 -13 -9 -14 2 -7 10 6 12 4 7 -4 -5 -7 -15 -10 -23 -6 -13 4 -14 3 -3 -10
7 -8 8 -15 2 -15 -5 0 -12 -9 -15 -21 -4 -13 -10 -18 -18 -13 -8 5 -10 3 -5
-5 5 -7 0 -19 -10 -27 -11 -9 -13 -13 -6 -9 7 4 12 0 12 -10 0 -9 -4 -13 -10
-10 -5 3 -10 1 -10 -5 0 -6 -4 -9 -9 -6 -5 4 -7 -3 -4 -14 3 -13 -1 -22 -12
-26 -13 -5 -14 -9 -3 -15 10 -7 10 -9 -3 -9 -8 0 -21 -16 -29 -35 -8 -19 -18
-35 -23 -35 -5 0 -7 -7 -4 -14 4 -10 1 -13 -7 -10 -17 6 -17 3 -22 -156 -2
-80 0 -129 5 -121 5 8 7 21 3 29 -4 11 -1 14 11 9 9 -3 16 -3 15 1 -3 18 25
72 38 72 8 0 14 4 14 9 0 5 12 16 26 26 15 9 23 12 20 6 -5 -7 -1 -9 8 -5 9 3
13 11 9 18 -4 6 2 4 12 -4 10 -8 16 -10 12 -3 -4 6 -3 14 3 18 5 3 10 0 10 -7
0 -9 3 -9 10 2 5 8 10 11 10 7 0 -4 10 -2 23 5 12 7 27 12 32 13 6 0 10 6 10
12 0 7 15 26 33 42 17 17 32 35 32 41 0 6 4 9 9 6 11 -7 53 38 44 47 -6 6 11
11 29 8 4 0 5 5 2 13 -3 7 3 19 13 27 16 12 17 12 8 -1 -5 -9 1 -4 14 10 13
14 20 19 16 11 -6 -10 -4 -12 4 -7 7 5 10 15 7 23 -3 8 -2 12 3 9 5 -3 20 5
34 18 14 13 28 22 31 19 2 -3 9 5 16 16 6 12 15 19 20 16 5 -3 14 3 19 14 6
10 22 22 36 25 14 4 23 11 20 16 -3 6 -1 10 5 10 6 0 8 5 4 13 -5 8 -2 7 9 -2
15 -12 17 -12 11 4 -5 13 -4 16 4 11 7 -4 12 -2 12 3 0 6 7 11 16 11 8 0 13 4
10 9 -3 5 1 14 9 21 13 11 14 10 9 -6 -4 -10 -5 -17 -3 -14 34 40 42 52 30 45
-10 -5 -12 -4 -7 3 4 7 14 12 23 12 12 0 13 3 4 14 -10 11 -9 16 3 23 8 4 15
13 17 18 2 10 5 23 14 51 3 9 10 12 17 8 10 -6 10 -4 0 8 -10 13 -10 17 0 21
10 4 9 6 -1 6 -11 1 -10 5 5 17 10 8 12 12 4 8 -13 -7 -13 -5 -1 9 7 9 10 17
5 17 -4 0 1 7 12 16 10 8 12 12 4 8 -9 -4 -7 2 5 13 11 11 24 18 29 15 5 -2 6
1 4 9 -5 15 27 49 46 49 6 0 4 5 -4 10 -13 9 -13 10 0 11 8 1 20 0 25 -1 6 -1
7 2 3 5 -9 9 17 61 34 71 8 5 7 0 -2 -12 -14 -19 -14 -19 7 0 13 10 20 22 18
26 -7 11 -42 1 -56 -16 -8 -10 -15 -11 -24 -4 -10 8 -15 8 -21 -1 -5 -8 -3 -9
6 -4 9 5 11 4 6 -3 -4 -7 -14 -12 -23 -12 -9 0 -22 -8 -30 -17 -8 -10 -11 -12
-7 -4 4 9 2 12 -7 9 -8 -3 -13 -11 -11 -18 2 -10 -1 -10 -14 1 -10 8 -15 9
-11 2 4 -7 -1 -14 -13 -18 -11 -3 -20 -10 -20 -15 0 -5 -6 -7 -14 -4 -7 3 -16
-2 -20 -12 -5 -13 -9 -14 -21 -4 -13 11 -14 10 -10 -3 4 -8 1 -18 -6 -23 -8
-5 -10 -3 -4 5 6 10 3 11 -14 2 -11 -7 -21 -14 -21 -17 0 -3 5 -2 12 2 7 4 8
3 4 -4 -5 -8 -13 -9 -26 -2 -13 7 -21 5 -31 -6 -7 -8 -21 -13 -31 -11 -10 3
-16 2 -13 -3 12 -19 -23 -15 -55 6 -19 13 -31 24 -27 24 4 0 3 9 -3 19 -7 14
-7 22 1 26 6 4 8 13 5 21 -3 8 -1 14 4 14 6 0 10 7 10 15 0 8 6 14 13 12 6 -1
11 6 11 15 -1 10 7 20 17 23 11 4 17 11 14 16 -4 5 -1 9 5 9 6 0 9 4 6 9 -3 5
1 11 9 14 8 4 12 15 10 27 -2 11 -1 19 3 16 4 -2 13 2 20 10 10 11 10 14 0 14
-6 0 -3 7 8 15 14 11 15 14 4 15 -13 0 -13 2 -1 9 11 7 12 15 5 30 -8 20 -10
20 -22 4z"/>
<path d="M2574 1818 c-5 -7 -2 -8 7 -3 11 6 12 5 2 -6 -17 -18 -16 -44 2 -59
13 -11 15 -6 15 34 0 44 -11 59 -26 34z"/>
<path d="M2554 1753 c2 -10 6 -17 10 -16 15 3 16 11 2 22 -12 10 -14 9 -12 -6z"/>
<path d="M2007 1603 c3 -7 6 -13 8 -13 2 0 5 6 8 13 3 8 -1 14 -8 14 -7 0 -11
-6 -8 -14z"/>
<path d="M2552 1567 c-17 -13 -29 -27 -25 -31 4 -4 0 -4 -9 -1 -9 4 -19 1 -24
-6 -5 -8 -3 -10 6 -4 8 5 11 4 7 -3 -4 -5 -18 -9 -32 -8 -13 2 -22 -1 -19 -5
3 -5 -1 -9 -8 -9 -9 0 -8 -4 2 -14 18 -16 84 -30 75 -16 -3 6 1 7 10 4 9 -4
27 -1 39 5 18 10 23 22 25 62 1 27 -2 49 -7 49 -4 0 -22 -11 -40 -23z"/>
<path d="M2420 1491 c0 -7 -5 -9 -10 -6 -6 4 -9 2 -8 -3 2 -5 -8 -19 -22 -31
-14 -13 -20 -20 -14 -17 7 3 14 -1 17 -9 4 -9 1 -12 -8 -9 -19 8 -51 -22 -32
-29 9 -4 9 -6 0 -6 -7 -1 -13 -8 -13 -16 0 -12 4 -11 20 5 22 22 27 35 8 24
-7 -4 -8 -3 -4 5 5 8 12 9 20 2 9 -7 17 -2 30 19 9 17 23 30 31 30 23 0 26 16
5 35 -13 11 -20 14 -20 6z"/>
<path d="M2050 1481 c0 -7 -5 -9 -12 -5 -7 5 -8 3 -3 -5 5 -9 10 -10 18 -2 6
6 8 14 4 18 -4 3 -7 1 -7 -6z"/>
<path d="M2400 1260 c-13 -8 -13 -11 1 -25 15 -15 17 -15 21 9 6 28 1 31 -22
16z"/>
<path d="M876 813 c-10 -10 -16 -12 -12 -5 4 6 2 12 -3 12 -6 0 -11 -5 -11
-11 0 -5 -4 -7 -10 -4 -5 3 -10 1 -10 -5 0 -7 -6 -10 -14 -7 -7 3 -23 -1 -35
-9 -12 -8 -26 -12 -31 -9 -6 3 -10 1 -10 -5 0 -6 -4 -8 -10 -5 -5 3 -10 0 -10
-7 0 -9 -3 -9 -10 2 -7 12 -10 12 -10 1 0 -8 -6 -11 -16 -7 -8 3 -12 2 -9 -4
3 -6 1 -11 -4 -11 -6 -1 -15 -3 -21 -4 -5 -1 -19 -3 -31 -4 -11 0 -17 -5 -14
-11 3 -5 1 -10 -4 -10 -6 0 -11 5 -11 11 0 8 -4 8 -12 2 -7 -6 -20 -10 -28
-10 -8 -1 -24 -4 -34 -9 -13 -5 -17 -4 -13 3 5 7 0 9 -14 6 -11 -3 -23 -12
-26 -19 -3 -8 -9 -11 -14 -8 -5 3 -9 -1 -9 -8 0 -9 -3 -9 -10 2 -7 11 -10 12
-10 2 0 -8 -6 -12 -12 -9 -7 2 -19 -3 -26 -12 -11 -13 -12 -13 -6 -1 6 12 4
13 -7 3 -7 -7 -21 -13 -31 -13 -10 0 -18 -7 -18 -15 0 -9 -6 -12 -17 -8 -13 5
-15 2 -10 -11 4 -10 3 -15 -3 -11 -6 3 -10 -1 -10 -10 0 -9 -5 -13 -10 -10 -6
3 -14 -4 -19 -17 -5 -13 -17 -30 -27 -38 -17 -13 -18 -13 -9 0 6 9 2 7 -7 -3
-10 -11 -15 -24 -11 -31 4 -6 -2 -4 -12 4 -11 9 -16 10 -11 3 4 -8 2 -13 -4
-13 -6 0 -8 -5 -4 -12 5 -8 2 -9 -9 -5 -10 3 -17 2 -17 -4 0 -6 -4 -7 -10 -4
-5 3 -10 0 -10 -7 0 -10 -2 -10 -9 1 -6 9 -11 10 -15 2 -5 -7 -12 -7 -26 1
-10 7 -16 16 -14 20 3 4 -2 8 -10 8 -9 0 -16 7 -16 16 0 8 -7 22 -15 30 -13
14 -15 3 -15 -94 0 -92 3 -111 16 -116 11 -4 15 -2 11 7 -4 10 7 13 43 13 27
-1 46 3 42 8 -3 5 2 6 12 3 10 -4 15 -3 11 3 -3 6 1 10 9 10 9 0 15 5 13 12
-1 7 4 12 11 13 7 0 17 6 21 14 5 7 14 11 20 7 7 -5 9 -1 4 11 -3 10 -3 15 2
11 4 -4 14 0 22 8 8 8 18 12 23 9 5 -3 12 4 15 16 4 11 9 18 12 15 3 -3 13 3
22 12 9 10 12 12 7 5 -6 -10 -4 -12 8 -7 9 3 16 12 16 20 0 8 7 14 15 14 8 0
15 5 15 11 0 6 6 9 13 6 13 -5 40 17 31 26 -3 2 2 7 11 11 11 4 14 2 10 -7 -4
-6 0 -4 8 6 9 10 19 18 24 19 4 0 7 5 5 10 -2 6 4 8 13 5 8 -4 15 -2 15 3 0 5
7 6 17 3 11 -4 14 -3 9 5 -4 7 -2 12 4 12 6 0 8 4 5 10 -3 5 0 7 8 4 8 -3 18
0 22 5 3 6 12 8 18 4 21 -13 47 -13 47 -1 0 6 6 3 14 -7 8 -11 12 -25 9 -32
-3 -7 1 -13 8 -13 11 0 11 -3 -1 -10 -13 -8 -13 -10 -1 -10 12 0 12 -3 3 -12
-7 -7 -12 -18 -12 -25 0 -8 -12 -25 -27 -39 -16 -14 -23 -23 -16 -20 6 4 15 1
19 -5 4 -7 3 -10 -2 -6 -15 9 -86 -46 -115 -88 -15 -22 -33 -40 -41 -41 -36
-3 -40 -5 -34 -20 3 -8 2 -12 -4 -9 -6 3 -13 -2 -17 -12 -10 -25 -74 -84 -84
-77 -5 3 -9 0 -9 -7 0 -7 -3 -10 -6 -6 -4 3 -19 0 -35 -9 -16 -8 -29 -12 -29
-9 0 3 -9 -4 -20 -15 -11 -11 -27 -20 -35 -20 -8 0 -15 -5 -15 -11 0 -6 7 -8
16 -5 8 3 12 2 9 -4 -9 -14 37 -22 67 -11 18 7 29 6 37 -2 10 -9 12 -9 9 2 -2
7 3 16 11 19 9 3 11 0 7 -9 -4 -8 1 -5 11 6 10 11 24 20 31 21 29 2 33 5 27
14 -3 5 0 7 9 4 9 -3 19 3 26 16 9 17 14 19 26 9 12 -10 13 -9 8 5 -6 14 5 21
29 17 4 0 7 3 7 9 0 5 7 10 16 10 8 0 13 4 10 9 -4 5 2 7 12 4 11 -2 26 2 34
11 9 8 18 12 22 9 3 -4 6 -1 6 5 0 6 9 9 20 7 11 -2 23 1 26 7 5 7 2 8 -6 3
-9 -5 -11 -4 -6 4 6 9 11 9 24 -1 12 -10 16 -10 19 0 3 6 15 12 27 12 12 0 28
6 35 13 11 10 12 9 6 -2 -6 -11 -4 -13 11 -7 10 5 25 9 32 9 6 0 12 5 12 11 0
6 5 4 10 -4 6 -9 10 -11 10 -3 0 7 7 10 17 6 12 -5 14 -3 8 7 -6 10 -4 11 6 4
23 -14 37 -13 43 3 4 8 13 13 21 9 8 -3 15 -1 15 5 0 6 4 8 9 5 5 -3 14 1 21
9 9 11 16 12 26 4 9 -8 15 -5 23 9 6 11 7 23 3 27 -4 5 1 5 11 2 11 -4 17 -1
17 7 0 8 3 23 6 33 5 15 4 15 -5 3 -9 -13 -11 -13 -11 0 0 12 -2 13 -9 1 -7
-11 -10 -9 -16 8 -3 11 -11 21 -16 21 -6 0 -8 4 -4 9 3 5 1 13 -5 16 -6 4 -8
16 -4 27 3 12 1 24 -6 28 -6 4 -13 16 -15 26 -2 10 -4 19 -6 19 -1 0 -3 10 -4
22 -1 12 1 20 5 18 4 -3 11 6 14 20 3 13 19 32 34 40 22 13 23 15 5 10 -19 -5
-22 -3 -17 12 6 16 5 16 -8 -1 -15 -19 -17 -18 -56 22 -22 22 -37 43 -34 46
14 15 -6 4 -22 -11z m84 -187 c0 -3 -4 -8 -10 -11 -5 -3 -10 -1 -10 4 0 6 5
11 10 11 6 0 10 -2 10 -4z m-390 -180 c0 -2 -8 -10 -17 -17 -16 -13 -17 -12
-4 4 13 16 21 21 21 13z"/>
<path d="M480 385 c-7 -9 -10 -18 -7 -21 3 -3 10 4 17 15 13 25 8 27 -10 6z"/>
<path d="M1026 268 c5 -7 2 -9 -8 -6 -8 4 -30 -3 -48 -13 -29 -18 -32 -18 -26
-3 5 14 4 15 -9 4 -8 -7 -12 -16 -9 -21 3 -5 -6 -5 -20 1 -14 5 -26 6 -26 1 0
-4 -7 -8 -15 -8 -8 0 -15 4 -15 9 0 5 -7 2 -16 -6 -11 -12 -20 -13 -33 -6 -15
7 -18 5 -17 -12 1 -12 9 -22 18 -24 10 -1 17 1 17 4 -3 18 2 26 9 14 5 -7 22
-14 39 -15 17 -1 29 -5 27 -8 -2 -4 3 -9 11 -13 8 -3 14 0 12 6 -2 10 14 16
58 22 11 1 22 11 24 21 2 14 5 15 12 4 7 -11 10 -9 15 8 4 13 10 21 13 18 4
-2 8 2 8 10 0 8 -7 17 -14 19 -9 4 -11 1 -7 -6z"/>
<path d="M717 196 c-11 -11 -17 -12 -27 -3 -9 8 -11 8 -7 1 4 -7 0 -17 -8 -24
-13 -11 -14 -10 -9 6 6 15 4 17 -6 7 -7 -6 -9 -16 -6 -22 10 -15 43 -14 49 2
4 10 6 10 6 0 1 -7 6 -13 12 -13 5 0 7 5 3 12 -5 8 -2 9 9 5 10 -3 17 -2 17 3
0 6 3 9 8 8 4 -2 8 0 10 5 5 16 2 27 -9 27 -5 0 -7 -6 -3 -12 6 -10 4 -10 -8
0 -13 10 -19 10 -31 -2z"/>
<path d="M200 190 c-8 -5 -10 -10 -5 -10 6 0 17 5 25 10 8 5 11 10 5 10 -5 0
-17 -5 -25 -10z"/>
<path d="M1820 139 c0 -6 -9 -8 -21 -4 -16 6 -20 4 -14 -6 6 -11 5 -11 -5 -2
-10 9 -21 7 -51 -9 -22 -11 -39 -24 -39 -30 0 -5 -4 -7 -9 -3 -5 3 -13 -4 -16
-16 -6 -17 -9 -19 -16 -8 -6 9 -9 10 -9 2 0 -6 -9 -15 -20 -18 -11 -3 -20 -12
-20 -20 0 -7 -6 -16 -12 -18 -7 -3 94 -6 225 -6 160 -1 237 2 237 10 0 5 -4 7
-10 4 -5 -3 -10 -1 -10 4 0 6 -7 11 -15 11 -9 0 -18 7 -21 15 -4 9 -11 15 -18
14 -17 -3 -46 12 -41 21 7 11 -24 22 -38 13 -6 -4 -8 0 -4 9 4 12 1 14 -13 11
-10 -3 -27 4 -39 16 -12 12 -21 16 -21 10z"/>
<path d="M1247 124 c3 -7 0 -14 -6 -14 -6 0 -11 4 -11 9 0 7 -51 7 -70 0 -3
-1 -8 -1 -11 -1 -3 1 -6 -5 -6 -12 0 -14 27 -13 120 3 12 2 8 19 -7 24 -10 4
-13 1 -9 -9z m-63 -12 c3 -5 -1 -9 -9 -9 -8 0 -12 4 -9 9 3 4 7 8 9 8 2 0 6
-4 9 -8z"/>
<path d="M1286 128 c3 -5 10 -6 15 -3 13 9 11 12 -6 12 -8 0 -12 -4 -9 -9z"/>
<path d="M950 41 c0 -14 -2 -14 -10 -1 -8 13 -10 12 -10 -2 0 -10 5 -18 11
-18 5 0 8 -3 6 -8 -3 -4 13 -8 35 -8 24 -1 34 2 26 7 -7 5 -13 16 -13 26 0 12
-8 18 -23 19 -14 1 -22 -5 -22 -15z"/>
<path d="M772 41 c-11 -7 -10 -9 3 -14 9 -4 14 -3 10 2 -3 5 1 12 7 14 7 3 9
6 3 6 -5 0 -16 -3 -23 -8z"/>
<path d="M2290 41 c0 -8 -7 -11 -20 -8 -10 3 -18 0 -17 -5 1 -6 -4 -13 -12
-16 -9 -3 -11 0 -6 7 5 9 1 8 -14 -1 -20 -12 -18 -13 28 -16 33 -2 60 3 78 13
15 9 19 14 9 10 -16 -5 -17 -3 -6 10 10 12 10 15 -4 15 -9 0 -16 -6 -16 -12 0
-9 -4 -8 -10 2 -8 12 -10 12 -10 1z"/>
<path d="M1390 19 c0 -5 5 -7 10 -4 6 3 10 8 10 11 0 2 -4 4 -10 4 -5 0 -10
-5 -10 -11z"/>
</g>
</svg>
