<?xml version="1.0" encoding="UTF-8" standalone="no"?>
<!-- Created with Inkscape (http://www.inkscape.org/) -->

<svg
   xmlns:dc="http://purl.org/dc/elements/1.1/"
   xmlns:cc="http://creativecommons.org/ns#"
   xmlns:rdf="http://www.w3.org/1999/02/22-rdf-syntax-ns#"
   xmlns:svg="http://www.w3.org/2000/svg"
   xmlns="http://www.w3.org/2000/svg"
   xmlns:sodipodi="http://sodipodi.sourceforge.net/DTD/sodipodi-0.dtd"
   xmlns:inkscape="http://www.inkscape.org/namespaces/inkscape"
   version="1.1"
   id="svg3699"
   xml:space="preserve"
   width="548.64001"
   height="174.84618"
   viewBox="0 0 548.64004 174.84618"
   sodipodi:docname="topomedics.svg"
   inkscape:version="0.92.2 (5c3e80d, 2017-08-06)"><metadata
     id="metadata3705"><rdf:RDF><cc:Work
         rdf:about=""><dc:format>image/svg+xml</dc:format><dc:type
           rdf:resource="http://purl.org/dc/dcmitype/StillImage" /><dc:title></dc:title></cc:Work></rdf:RDF></metadata><defs
     id="defs3703"><clipPath
       clipPathUnits="userSpaceOnUse"
       id="clipPath79"><path
         style="fill:none;stroke:#000000;stroke-width:0.75px;stroke-linecap:butt;stroke-linejoin:miter;stroke-opacity:1"
         d="m 145.51182,274.85564 515.90553,-2.93963 -8.8189,-138.16274 -490.91865,4.40946 z"
         id="path81"
         inkscape:connector-curvature="0" /></clipPath></defs><sodipodi:namedview
     pagecolor="#ffffff"
     bordercolor="#666666"
     borderopacity="1"
     objecttolerance="10"
     gridtolerance="10"
     guidetolerance="10"
     inkscape:pageopacity="0"
     inkscape:pageshadow="2"
     inkscape:window-width="1920"
     inkscape:window-height="1003"
     id="namedview3701"
     showgrid="false"
     inkscape:zoom="1.0205357"
     inkscape:cx="303.74384"
     inkscape:cy="205.22239"
     inkscape:window-x="-9"
     inkscape:window-y="-9"
     inkscape:window-maximized="1"
     inkscape:current-layer="g3707" /><g
     id="g3707"
     inkscape:groupmode="layer"
     inkscape:label="topomedics"
     transform="matrix(1.3333333,0,0,-1.3333333,-257.51599,366.47418)"><g
       id="g3709"
       clip-path="url(#clipPath79)"><path
         d="m 206.055,243.947 h -12.918 v 6.645 h 34.57 v -6.645 h -12.918 v -44.871 h -8.734 z"
         style="fill:#656263;fill-opacity:1;fill-rule:nonzero;stroke:none"
         id="path3711"
         inkscape:connector-curvature="0" /><path
         d="m 250.492,204.451 c 8.813,0 11.199,9.407 11.199,20.383 0,10.977 -2.386,20.383 -11.199,20.383 -8.883,0 -11.195,-9.406 -11.195,-20.383 0,-10.976 2.312,-20.383 11.195,-20.383 m -20.828,20.383 c 0,15.008 4.703,26.578 20.828,26.578 16.055,0 20.832,-11.57 20.832,-26.578 0,-15.008 -4.777,-26.578 -20.832,-26.578 -16.125,0 -20.828,11.57 -20.828,26.578"
         style="fill:#656263;fill-opacity:1;fill-rule:nonzero;stroke:none"
         id="path3713"
         inkscape:connector-curvature="0" /><path
         d="m 288.871,227.225 h 4.555 c 5.226,0 9.183,2.613 9.183,8.512 0,6.644 -3.437,8.66 -9.183,8.66 h -4.555 z m -8.734,23.367 h 13.289 c 7.988,0 18.066,-1.195 18.066,-14.855 0,-12.321 -10.898,-14.711 -18.066,-14.711 h -4.555 v -21.95 h -8.734 z"
         style="fill:#656263;fill-opacity:1;fill-rule:nonzero;stroke:none"
         id="path3715"
         inkscape:connector-curvature="0" /><path
         d="m 336.207,204.451 c 8.809,0 11.199,9.407 11.199,20.383 0,10.977 -2.39,20.383 -11.199,20.383 -8.887,0 -11.199,-9.406 -11.199,-20.383 0,-10.976 2.312,-20.383 11.199,-20.383 m -20.832,20.383 c 0,15.008 4.707,26.578 20.832,26.578 16.051,0 20.828,-11.57 20.828,-26.578 0,-15.008 -4.777,-26.578 -20.828,-26.578 -16.125,0 -20.832,11.57 -20.832,26.578"
         style="fill:#656263;fill-opacity:1;fill-rule:nonzero;stroke:none"
         id="path3717"
         inkscape:connector-curvature="0" /><path
         d="m 365.848,250.592 h 11.945 l 14.336,-41.137 h 0.148 l 14.411,41.137 h 11.871 v -51.516 h -7.989 v 40.618 h -0.148 l -14.188,-40.618 h -8.062 l -14.184,40.618 h -0.152 v -40.618 h -7.988 z"
         style="fill:#656263;fill-opacity:1;fill-rule:nonzero;stroke:none"
         id="path3719"
         inkscape:connector-curvature="0" /><path
         d="m 429.535,250.592 h 30.09 v -6.645 H 438.27 v -14.859 h 20.234 v -6.641 H 438.27 v -16.726 h 21.953 v -6.645 h -30.688 z"
         style="fill:#656263;fill-opacity:1;fill-rule:nonzero;stroke:none"
         id="path3721"
         inkscape:connector-curvature="0" /><path
         d="m 477.094,205.276 h 4.031 c 8.813,0 12.992,3.878 12.992,19.707 0,12.543 -2.164,19.414 -12.992,19.414 h -4.031 z m -8.735,45.316 h 12.766 c 16.504,0 22.625,-7.168 22.625,-25.609 0,-23.817 -11.945,-25.907 -22.625,-25.907 h -12.766 z"
         style="fill:#656263;fill-opacity:1;fill-rule:nonzero;stroke:none"
         id="path3723"
         inkscape:connector-curvature="0" /><path
         d="m 512.336,250.592 h 8.734 v -51.516 h -8.734 z"
         style="fill:#656263;fill-opacity:1;fill-rule:nonzero;stroke:none"
         id="path3725"
         inkscape:connector-curvature="0" /><path
         d="m 565.418,201.24 c -2.465,-1.043 -7.84,-2.984 -14.035,-2.984 -15.008,0 -21.653,10.75 -21.653,26.801 0,15.16 5.598,26.359 20.309,26.359 11.945,0 17.32,-6.945 17.32,-14.933 h -9.707 c 0,4.031 -0.894,8.734 -7.613,8.734 -9.035,0 -10.676,-10.75 -10.676,-18.816 0,-12.317 3.508,-21.278 14.035,-21.278 5.75,0 10.602,2.989 12.02,3.809 z"
         style="fill:#656263;fill-opacity:1;fill-rule:nonzero;stroke:none"
         id="path3727"
         inkscape:connector-curvature="0" /><path
         d="m 600.734,241.932 c -3.433,1.344 -7.687,3.285 -12.918,3.285 -4.328,0 -7.761,-1.941 -7.761,-6.348 0,-9.109 24.562,-10.453 24.562,-25.98 0,-9.633 -7.765,-14.633 -18.965,-14.633 -6.644,0 -12.691,1.793 -14.261,2.164 v 9.035 c 3.062,-1.867 8.066,-5.004 14.562,-5.004 6.867,0 9.031,3.809 9.031,7.168 0,11.2 -24.562,11.871 -24.562,26.504 0,9.184 7.988,13.289 17.695,13.289 5.75,0 10.75,-1.043 12.617,-1.418 z"
         style="fill:#656263;fill-opacity:1;fill-rule:nonzero;stroke:none"
         id="path3729"
         inkscape:connector-curvature="0" /><path
         d="m 495.895,374.885 c 0,-53.027 -42.985,-96.016 -96.012,-96.016 -53.024,0 -96.008,42.989 -96.008,96.016 0,53.023 42.984,96.004 96.008,96.004 53.027,0 96.012,-42.981 96.012,-96.004"
         style="fill:#50ade5;fill-opacity:1;fill-rule:nonzero;stroke:none"
         id="path3731"
         inkscape:connector-curvature="0" /><path
         d="m 415.484,411.401 c -4.605,-2.622 -9.925,-4.122 -15.597,-4.122 -5.399,0 -10.465,1.348 -14.907,3.727 -1.433,-4.949 -4.097,-9.629 -8.007,-13.535 -3.797,-3.797 -8.317,-6.418 -13.121,-7.875 2.316,-4.395 3.636,-9.402 3.636,-14.715 0,-5.25 -1.285,-10.199 -3.554,-14.551 5.004,-1.422 9.734,-4.101 13.671,-8.035 3.829,-3.844 6.473,-8.41 7.926,-13.266 4.305,2.204 9.18,3.454 14.348,3.454 5.461,0 10.59,-1.383 15.07,-3.821 1.465,4.75 4.074,9.231 7.836,12.992 3.879,3.872 8.5,6.532 13.422,7.981 -2.5,4.516 -3.926,9.715 -3.926,15.246 0,5.602 1.457,10.852 4.02,15.422 -4.711,1.469 -9.149,4.07 -12.883,7.805 -3.844,3.836 -6.488,8.425 -7.934,13.293"
         style="fill:#95cbef;fill-opacity:1;fill-rule:nonzero;stroke:none"
         id="path3733"
         inkscape:connector-curvature="0" /><path
         d="m 343.848,405.463 c 2.836,5.141 6.422,9.988 10.785,14.356 4.461,4.457 9.422,8.109 14.699,10.976 -0.684,2.574 -1.051,5.285 -1.051,8.082 0,3.051 0.449,6.004 1.258,8.805 -11.957,6.398 -27.16,4.558 -37.25,-5.531 -10.027,-10.032 -11.906,-25.133 -5.621,-37.047 2.914,0.89 6.016,1.367 9.227,1.367 2.746,0 5.41,-0.344 7.953,-1.008"
         style="fill:#83c3ec;fill-opacity:1;fill-rule:nonzero;stroke:none"
         id="path3735"
         inkscape:connector-curvature="0" /><path
         d="m 363.852,389.596 c 4.804,1.457 9.324,4.078 13.121,7.875 3.91,3.906 6.574,8.586 8.007,13.535 -7.636,4.098 -13.394,11.227 -15.648,19.789 -5.277,-2.867 -10.238,-6.519 -14.699,-10.976 -4.363,-4.368 -7.949,-9.215 -10.785,-14.356 8.683,-2.25 15.91,-8.105 20.004,-15.867"
         style="fill:#61b4e7;fill-opacity:1;fill-rule:nonzero;stroke:none"
         id="path3737"
         inkscape:connector-curvature="0" /><path
         d="m 456.23,344.221 c -2.886,-5.352 -6.578,-10.383 -11.097,-14.91 -4.426,-4.418 -9.34,-8.043 -14.563,-10.903 0.59,-2.406 0.907,-4.921 0.907,-7.511 0,-3.262 -0.489,-6.403 -1.403,-9.356 11.977,-6.5 27.27,-4.687 37.403,5.434 10.179,10.187 11.945,25.586 5.32,37.597 -2.828,-0.843 -5.82,-1.285 -8.922,-1.285 -2.637,0 -5.199,0.328 -7.645,0.934"
         style="fill:#83c3ec;fill-opacity:1;fill-rule:nonzero;stroke:none"
         id="path3739"
         inkscape:connector-curvature="0" /><path
         d="m 436.207,359.635 c -4.922,-1.449 -9.543,-4.106 -13.422,-7.981 -3.762,-3.761 -6.371,-8.242 -7.836,-12.992 7.715,-4.195 13.485,-11.508 15.621,-20.254 5.223,2.86 10.137,6.489 14.563,10.907 4.519,4.523 8.211,9.554 11.097,14.906 -8.625,2.141 -15.835,7.824 -20.023,15.414"
         style="fill:#61b4e7;fill-opacity:1;fill-rule:nonzero;stroke:none"
         id="path3741"
         inkscape:connector-curvature="0" /><path
         d="m 369.199,318.408 c -5.222,2.86 -10.144,6.481 -14.566,10.907 -4.52,4.523 -8.211,9.554 -11.094,14.906 -2.453,-0.606 -5.008,-0.934 -7.644,-0.934 -3.008,0 -5.926,0.43 -8.684,1.207 -6.176,-11.894 -4.281,-26.902 5.707,-36.886 9.937,-9.934 24.832,-11.868 36.707,-5.805 -0.867,2.875 -1.34,5.922 -1.34,9.086 0,2.594 0.32,5.113 0.914,7.519"
         style="fill:#83c3ec;fill-opacity:1;fill-rule:nonzero;stroke:none"
         id="path3743"
         inkscape:connector-curvature="0" /><path
         d="m 385.531,339.029 c -1.453,4.856 -4.097,9.422 -7.926,13.266 -3.937,3.934 -8.667,6.613 -13.671,8.035 -4.125,-7.933 -11.516,-13.902 -20.395,-16.109 2.883,-5.352 6.574,-10.383 11.094,-14.906 4.422,-4.426 9.344,-8.047 14.566,-10.907 2.199,9.02 8.254,16.5 16.332,20.621"
         style="fill:#61b4e7;fill-opacity:1;fill-rule:nonzero;stroke:none"
         id="path3745"
         inkscape:connector-curvature="0" /><path
         d="m 430.434,430.795 c 5.277,-2.867 10.238,-6.519 14.699,-10.976 4.355,-4.368 7.945,-9.211 10.781,-14.356 2.551,0.664 5.211,1.012 7.965,1.012 3.301,0 6.473,-0.504 9.461,-1.446 6.73,12.036 4.992,27.532 -5.238,37.754 -10.282,10.289 -25.887,11.996 -37.942,5.137 0.848,-2.871 1.317,-5.898 1.317,-9.051 0,-2.793 -0.364,-5.5 -1.043,-8.074"
         style="fill:#83c3ec;fill-opacity:1;fill-rule:nonzero;stroke:none"
         id="path3747"
         inkscape:connector-curvature="0" /><path
         d="m 415.484,411.401 c 1.446,-4.868 4.09,-9.457 7.934,-13.293 3.734,-3.735 8.172,-6.336 12.883,-7.805 4.148,7.41 11.199,12.976 19.613,15.16 -2.836,5.145 -6.426,9.988 -10.781,14.356 -4.461,4.457 -9.422,8.109 -14.699,10.976 -2.192,-8.301 -7.661,-15.246 -14.95,-19.394"
         style="fill:#61b4e7;fill-opacity:1;fill-rule:nonzero;stroke:none"
         id="path3749"
         inkscape:connector-curvature="0" /><path
         d="m 381.797,435.955 c 11.871,3.485 24.543,3.461 36.402,-0.062 1.383,2.469 3.121,4.797 5.219,6.89 2.055,2.059 4.324,3.766 6.738,5.137 -3.89,13.039 -15.965,22.543 -30.273,22.543 -14.399,0 -26.528,-9.621 -30.344,-22.781 2.672,-1.434 5.18,-3.27 7.434,-5.524 1.902,-1.91 3.511,-3.984 4.824,-6.203"
         style="fill:#83c3ec;fill-opacity:1;fill-rule:nonzero;stroke:none"
         id="path3751"
         inkscape:connector-curvature="0" /><path
         d="m 384.98,411.006 c 4.442,-2.375 9.508,-3.727 14.907,-3.727 5.672,0 10.992,1.5 15.597,4.122 -2.41,8.097 -1.507,16.968 2.715,24.492 -11.859,3.523 -24.531,3.547 -36.402,0.062 4.519,-7.586 5.582,-16.664 3.183,-24.949"
         style="fill:#61b4e7;fill-opacity:1;fill-rule:nonzero;stroke:none"
         id="path3753"
         inkscape:connector-curvature="0" /><path
         d="m 369.332,430.795 c 4,2.18 8.18,3.902 12.465,5.16 -1.313,2.219 -2.922,4.293 -4.824,6.203 -2.254,2.254 -4.766,4.09 -7.434,5.524 -0.809,-2.805 -1.258,-5.754 -1.258,-8.805 0,-2.797 0.367,-5.508 1.051,-8.082"
         style="fill:#c9e4f7;fill-opacity:1;fill-rule:nonzero;stroke:none"
         id="path3755"
         inkscape:connector-curvature="0" /><path
         d="m 384.98,411.006 c 2.399,8.285 1.336,17.363 -3.183,24.949 -4.285,-1.258 -8.465,-2.98 -12.465,-5.16 2.254,-8.562 8.012,-15.691 15.648,-19.789"
         style="fill:#83c3ec;fill-opacity:1;fill-rule:nonzero;stroke:none"
         id="path3757"
         inkscape:connector-curvature="0" /><path
         d="m 418.199,435.893 c 4.207,-1.258 8.305,-2.961 12.235,-5.098 0.675,2.574 1.043,5.281 1.043,8.074 0,3.153 -0.465,6.18 -1.321,9.051 -2.414,-1.371 -4.683,-3.078 -6.734,-5.137 -2.102,-2.093 -3.836,-4.421 -5.223,-6.89"
         style="fill:#c9e4f7;fill-opacity:1;fill-rule:nonzero;stroke:none"
         id="path3759"
         inkscape:connector-curvature="0" /><path
         d="m 415.484,411.401 c 7.289,4.148 12.758,11.093 14.95,19.394 -3.93,2.137 -8.028,3.84 -12.235,5.098 -4.222,-7.524 -5.125,-16.395 -2.715,-24.492"
         style="fill:#83c3ec;fill-opacity:1;fill-rule:nonzero;stroke:none"
         id="path3761"
         inkscape:connector-curvature="0" /><path
         d="m 417.965,313.17 c -11.719,-3.437 -24.231,-3.461 -35.961,-0.055 -1.234,-1.953 -2.695,-3.808 -4.399,-5.507 -2.41,-2.411 -5.109,-4.34 -7.98,-5.805 3.902,-13.02 15.965,-22.508 30.262,-22.508 14.187,0 26.195,9.359 30.183,22.246 -2.613,1.418 -5.074,3.223 -7.285,5.434 -1.894,1.902 -3.504,3.988 -4.82,6.195"
         style="fill:#83c3ec;fill-opacity:1;fill-rule:nonzero;stroke:none"
         id="path3763"
         inkscape:connector-curvature="0" /><path
         d="m 414.949,338.662 c -4.48,2.438 -9.609,3.821 -15.07,3.821 -5.168,0 -10.043,-1.25 -14.348,-3.454 2.574,-8.613 1.395,-18.101 -3.531,-25.914 11.73,-3.406 24.246,-3.382 35.965,0.055 -4.613,7.758 -5.625,17.059 -3.016,25.492"
         style="fill:#61b4e7;fill-opacity:1;fill-rule:nonzero;stroke:none"
         id="path3765"
         inkscape:connector-curvature="0" /><path
         d="m 430.57,318.408 c -4.043,-2.211 -8.265,-3.957 -12.605,-5.238 1.316,-2.207 2.926,-4.293 4.82,-6.195 2.211,-2.211 4.672,-4.016 7.285,-5.434 0.918,2.953 1.407,6.094 1.407,9.356 0,2.586 -0.321,5.105 -0.907,7.511"
         style="fill:#c9e4f7;fill-opacity:1;fill-rule:nonzero;stroke:none"
         id="path3767"
         inkscape:connector-curvature="0" /><path
         d="m 414.949,338.662 c -2.609,-8.433 -1.597,-17.734 3.016,-25.492 4.34,1.281 8.562,3.027 12.605,5.238 -2.136,8.743 -7.906,16.059 -15.621,20.254"
         style="fill:#83c3ec;fill-opacity:1;fill-rule:nonzero;stroke:none"
         id="path3769"
         inkscape:connector-curvature="0" /><path
         d="m 382,313.115 c -4.406,1.274 -8.699,3.051 -12.801,5.293 -0.594,-2.406 -0.914,-4.925 -0.914,-7.519 0,-3.164 0.473,-6.211 1.34,-9.086 2.871,1.465 5.57,3.394 7.98,5.805 1.704,1.699 3.165,3.554 4.395,5.507"
         style="fill:#c9e4f7;fill-opacity:1;fill-rule:nonzero;stroke:none"
         id="path3771"
         inkscape:connector-curvature="0" /><path
         d="m 385.531,339.029 c -8.078,-4.121 -14.133,-11.601 -16.332,-20.621 4.102,-2.242 8.395,-4.019 12.805,-5.293 4.922,7.813 6.101,17.305 3.527,25.914"
         style="fill:#83c3ec;fill-opacity:1;fill-rule:nonzero;stroke:none"
         id="path3773"
         inkscape:connector-curvature="0" /><path
         d="m 495.469,374.881 c 0,14.148 -9.305,26.129 -22.129,30.148 -1.391,-2.484 -3.129,-4.82 -5.238,-6.921 -2.098,-2.11 -4.426,-3.84 -6.895,-5.231 3.531,-11.855 3.551,-24.527 0.07,-36.387 2.211,-1.328 4.289,-2.925 6.2,-4.824 2.148,-2.168 3.918,-4.551 5.32,-7.094 13.105,3.848 22.672,15.961 22.672,30.309"
         style="fill:#83c3ec;fill-opacity:1;fill-rule:nonzero;stroke:none"
         id="path3775"
         inkscape:connector-curvature="0" /><path
         d="m 436.301,390.303 c -2.563,-4.57 -4.02,-9.82 -4.02,-15.422 0,-5.531 1.426,-10.73 3.926,-15.246 8.32,2.434 17.441,1.387 25.07,-3.145 3.481,11.86 3.461,24.532 -0.07,36.387 -7.648,-4.285 -16.699,-5.144 -24.906,-2.574"
         style="fill:#61b4e7;fill-opacity:1;fill-rule:nonzero;stroke:none"
         id="path3777"
         inkscape:connector-curvature="0" /><path
         d="m 461.277,356.49 c -1.238,-4.218 -2.929,-8.328 -5.047,-12.269 2.446,-0.606 5.008,-0.934 7.645,-0.934 3.102,0 6.094,0.446 8.922,1.285 -1.402,2.543 -3.172,4.926 -5.32,7.094 -1.911,1.899 -3.989,3.496 -6.2,4.824"
         style="fill:#c9e4f7;fill-opacity:1;fill-rule:nonzero;stroke:none"
         id="path3779"
         inkscape:connector-curvature="0" /><path
         d="m 436.207,359.635 c 4.188,-7.59 11.398,-13.273 20.023,-15.414 2.118,3.941 3.809,8.051 5.047,12.269 -7.629,4.532 -16.75,5.579 -25.07,3.145"
         style="fill:#83c3ec;fill-opacity:1;fill-rule:nonzero;stroke:none"
         id="path3781"
         inkscape:connector-curvature="0" /><path
         d="m 455.914,405.463 c 2.231,-4.031 4.004,-8.246 5.293,-12.586 2.469,1.391 4.797,3.121 6.895,5.231 2.109,2.101 3.847,4.437 5.238,6.921 -2.988,0.938 -6.16,1.442 -9.461,1.442 -2.754,0 -5.414,-0.344 -7.965,-1.008"
         style="fill:#c9e4f7;fill-opacity:1;fill-rule:nonzero;stroke:none"
         id="path3783"
         inkscape:connector-curvature="0" /><path
         d="m 436.301,390.303 c 8.207,-2.57 17.258,-1.711 24.906,2.574 -1.289,4.34 -3.062,8.555 -5.293,12.586 -8.414,-2.18 -15.465,-7.75 -19.613,-15.16"
         style="fill:#83c3ec;fill-opacity:1;fill-rule:nonzero;stroke:none"
         id="path3785"
         inkscape:connector-curvature="0" /><path
         d="m 338.434,356.69 c -3.399,11.73 -3.383,24.23 0.054,35.957 -2.211,1.32 -4.297,2.922 -6.199,4.824 -2.309,2.308 -4.18,4.887 -5.621,7.633 -12.953,-3.95 -22.367,-15.985 -22.367,-30.223 0,-14.441 9.679,-26.609 22.91,-30.387 1.457,2.813 3.355,5.446 5.707,7.801 1.707,1.695 3.559,3.156 5.516,4.395"
         style="fill:#83c3ec;fill-opacity:1;fill-rule:nonzero;stroke:none"
         id="path3787"
         inkscape:connector-curvature="0" /><path
         d="m 363.934,360.33 c 2.269,4.352 3.554,9.301 3.554,14.551 0,5.313 -1.32,10.32 -3.636,14.715 -8.399,-2.559 -17.641,-1.539 -25.364,3.051 -3.437,-11.727 -3.453,-24.227 -0.054,-35.961 7.687,4.843 16.992,6.062 25.5,3.644"
         style="fill:#61b4e7;fill-opacity:1;fill-rule:nonzero;stroke:none"
         id="path3789"
         inkscape:connector-curvature="0" /><path
         d="m 338.488,392.647 c 1.297,4.414 3.094,8.715 5.36,12.816 -2.543,0.664 -5.207,1.012 -7.953,1.012 -3.211,0 -6.313,-0.481 -9.227,-1.371 1.441,-2.746 3.312,-5.325 5.621,-7.633 1.902,-1.902 3.988,-3.504 6.199,-4.824"
         style="fill:#c9e4f7;fill-opacity:1;fill-rule:nonzero;stroke:none"
         id="path3791"
         inkscape:connector-curvature="0" /><path
         d="m 363.852,389.596 c -4.094,7.762 -11.321,13.617 -20.004,15.867 -2.266,-4.101 -4.063,-8.402 -5.36,-12.816 7.723,-4.594 16.965,-5.61 25.364,-3.051"
         style="fill:#83c3ec;fill-opacity:1;fill-rule:nonzero;stroke:none"
         id="path3793"
         inkscape:connector-curvature="0" /><path
         d="m 343.539,344.221 c -2.156,3.996 -3.859,8.18 -5.105,12.465 -1.957,-1.235 -3.809,-2.696 -5.516,-4.391 -2.352,-2.355 -4.25,-4.988 -5.707,-7.801 2.758,-0.777 5.672,-1.207 8.684,-1.207 2.636,0 5.191,0.328 7.644,0.934"
         style="fill:#c9e4f7;fill-opacity:1;fill-rule:nonzero;stroke:none"
         id="path3795"
         inkscape:connector-curvature="0" /><path
         d="m 363.934,360.33 c -8.508,2.418 -17.813,1.199 -25.5,-3.644 1.246,-4.285 2.949,-8.469 5.105,-12.465 8.879,2.207 16.27,8.176 20.395,16.109"
         style="fill:#83c3ec;fill-opacity:1;fill-rule:nonzero;stroke:none"
         id="path3797"
         inkscape:connector-curvature="0" /><path
         d="m 278.984,161.162 c 0.59,-0.156 1.336,-0.215 2.235,-0.215 3.258,0 5.246,1.582 5.246,4.438 0,2.762 -1.957,4.098 -4.934,4.098 -1.179,0 -2.082,-0.094 -2.547,-0.219 z m -2.699,10.028 c 1.305,0.246 3.012,0.433 5.184,0.433 2.668,0 4.625,-0.621 5.867,-1.738 1.144,-0.992 1.859,-2.516 1.859,-4.348 0,-1.89 -0.558,-3.383 -1.644,-4.468 -1.426,-1.52 -3.754,-2.297 -6.395,-2.297 -0.804,0 -1.551,0.035 -2.172,0.187 v -8.41 h -2.699 z"
         style="fill:#656263;fill-opacity:1;fill-rule:nonzero;stroke:none"
         id="path3799"
         inkscape:connector-curvature="0" /><path
         d="m 292.207,160.885 c 0,1.769 -0.031,3.289 -0.121,4.687 h 2.387 l 0.125,-2.949 h 0.093 c 0.684,2.016 2.36,3.289 4.192,3.289 0.277,0 0.496,-0.031 0.742,-0.062 v -2.578 c -0.277,0.031 -0.559,0.062 -0.93,0.062 -1.925,0 -3.289,-1.457 -3.664,-3.472 -0.062,-0.407 -0.093,-0.84 -0.093,-1.274 v -8.039 h -2.731 z"
         style="fill:#656263;fill-opacity:1;fill-rule:nonzero;stroke:none"
         id="path3801"
         inkscape:connector-curvature="0" /><path
         d="m 311.578,159.518 c 0.027,1.738 -0.715,4.437 -3.758,4.437 -2.793,0 -3.972,-2.543 -4.187,-4.437 z m -7.98,-1.953 c 0.062,-3.664 2.394,-5.184 5.125,-5.184 1.953,0 3.164,0.34 4.156,0.773 l 0.496,-1.953 c -0.961,-0.437 -2.637,-0.964 -5.027,-0.964 -4.594,0 -7.387,3.074 -7.387,7.574 0,4.531 2.699,8.101 7.078,8.101 4.902,0 6.176,-4.316 6.176,-7.078 0,-0.558 -0.031,-0.961 -0.094,-1.269 z"
         style="fill:#656263;fill-opacity:1;fill-rule:nonzero;stroke:none"
         id="path3803"
         inkscape:connector-curvature="0" /><path
         d="m 328.305,151.108 c -0.711,-0.344 -2.297,-0.871 -4.313,-0.871 -4.531,0 -7.48,3.074 -7.48,7.667 0,4.625 3.168,8.008 8.07,8.008 1.613,0 3.043,-0.402 3.785,-0.808 l -0.621,-2.078 c -0.648,0.339 -1.672,0.714 -3.164,0.714 -3.445,0 -5.309,-2.578 -5.309,-5.679 0,-3.477 2.235,-5.617 5.215,-5.617 1.551,0 2.578,0.371 3.352,0.71 z"
         style="fill:#656263;fill-opacity:1;fill-rule:nonzero;stroke:none"
         id="path3805"
         inkscape:connector-curvature="0" /><path
         d="m 331.504,165.569 h 2.73 v -15.02 h -2.73 z m 1.305,2.546 c -0.993,0 -1.645,0.778 -1.645,1.676 0,0.961 0.68,1.707 1.707,1.707 0.992,0 1.676,-0.746 1.676,-1.707 0,-0.898 -0.652,-1.676 -1.707,-1.676 z"
         style="fill:#656263;fill-opacity:1;fill-rule:nonzero;stroke:none"
         id="path3807"
         inkscape:connector-curvature="0" /><path
         d="m 338.395,153.342 c 0.839,-0.496 2.265,-1.055 3.632,-1.055 1.953,0 2.887,0.961 2.887,2.235 0,1.304 -0.777,1.984 -2.766,2.73 -2.73,0.992 -4,2.485 -4,4.254 0,2.418 1.985,4.406 5.18,4.406 1.524,0 2.856,-0.402 3.664,-0.933 l -0.652,-1.953 c -0.59,0.339 -1.676,0.867 -3.07,0.867 -1.618,0 -2.485,-0.93 -2.485,-2.047 0,-1.242 0.867,-1.801 2.824,-2.574 2.575,-0.965 3.942,-2.27 3.942,-4.504 0,-2.668 -2.078,-4.531 -5.586,-4.531 -1.645,0 -3.164,0.437 -4.223,1.058 z"
         style="fill:#656263;fill-opacity:1;fill-rule:nonzero;stroke:none"
         id="path3809"
         inkscape:connector-curvature="0" /><path
         d="m 351.059,165.569 h 2.73 v -15.02 h -2.73 z m 1.304,2.546 c -0.992,0 -1.644,0.778 -1.644,1.676 0,0.961 0.683,1.707 1.707,1.707 0.992,0 1.676,-0.746 1.676,-1.707 0,-0.898 -0.653,-1.676 -1.707,-1.676 z"
         style="fill:#656263;fill-opacity:1;fill-rule:nonzero;stroke:none"
         id="path3811"
         inkscape:connector-curvature="0" /><path
         d="m 364.559,152.256 c 2.609,0 4.566,2.453 4.566,5.867 0,2.543 -1.273,5.739 -4.504,5.739 -3.195,0 -4.59,-2.977 -4.59,-5.833 0,-3.292 1.86,-5.773 4.5,-5.773 z m -0.121,-2.051 c -4.036,0 -7.204,2.981 -7.204,7.731 0,5.027 3.325,7.976 7.45,7.976 4.316,0 7.23,-3.136 7.23,-7.699 0,-5.586 -3.879,-8.008 -7.445,-8.008 z"
         style="fill:#656263;fill-opacity:1;fill-rule:nonzero;stroke:none"
         id="path3813"
         inkscape:connector-curvature="0" /><path
         d="m 375.363,161.506 c 0,1.582 -0.031,2.824 -0.125,4.063 h 2.422 l 0.156,-2.45 h 0.063 c 0.742,1.395 2.48,2.793 4.965,2.793 2.078,0 5.304,-1.242 5.304,-6.394 v -8.969 h -2.73 v 8.66 c 0,2.418 -0.898,4.469 -3.477,4.469 -1.765,0 -3.164,-1.274 -3.66,-2.793 -0.125,-0.344 -0.187,-0.84 -0.187,-1.273 v -9.063 h -2.731 z"
         style="fill:#656263;fill-opacity:1;fill-rule:nonzero;stroke:none"
         id="path3815"
         inkscape:connector-curvature="0" /><path
         d="m 401.902,156.569 c 0,-0.34 0.032,-0.684 0.094,-0.993 0.527,-1.894 2.141,-3.195 4.094,-3.195 2.887,0 4.562,2.328 4.562,5.77 0,3.043 -1.55,5.621 -4.468,5.621 -1.864,0 -3.598,-1.305 -4.129,-3.356 -0.09,-0.34 -0.153,-0.711 -0.153,-1.144 z m -2.73,16.015 h 2.73 v -9.402 h 0.063 c 0.961,1.676 2.699,2.73 5.121,2.73 3.723,0 6.328,-3.105 6.328,-7.636 0,-5.399 -3.414,-8.071 -6.766,-8.071 -2.171,0 -3.878,0.84 -5.027,2.824 h -0.062 l -0.153,-2.48 h -2.359 c 0.09,1.023 0.125,2.543 0.125,3.879 z"
         style="fill:#656263;fill-opacity:1;fill-rule:nonzero;stroke:none"
         id="path3817"
         inkscape:connector-curvature="0" /><path
         d="m 417.605,165.569 3.262,-8.875 c 0.371,-0.993 0.742,-2.172 0.992,-3.075 h 0.063 c 0.281,0.903 0.59,2.051 0.961,3.137 l 2.98,8.813 h 2.887 l -4.098,-10.707 c -1.953,-5.149 -3.289,-7.758 -5.152,-9.403 -1.367,-1.148 -2.668,-1.613 -3.352,-1.738 l -0.683,2.266 c 0.683,0.218 1.582,0.652 2.39,1.335 0.747,0.59 1.645,1.645 2.297,3.04 0.125,0.281 0.219,0.496 0.219,0.652 0,0.156 -0.062,0.371 -0.219,0.715 l -5.523,13.84 z"
         style="fill:#656263;fill-opacity:1;fill-rule:nonzero;stroke:none"
         id="path3819"
         inkscape:connector-curvature="0" /><path
         d="m 440.605,152.658 c 0.688,-0.125 1.68,-0.125 2.735,-0.125 5.769,-0.031 8.906,3.231 8.906,8.879 0.031,4.934 -2.762,8.071 -8.473,8.071 -1.394,0 -2.453,-0.125 -3.168,-0.282 z m -2.726,18.532 c 1.672,0.246 3.629,0.433 5.769,0.433 3.879,0 6.645,-0.902 8.473,-2.609 1.895,-1.707 2.981,-4.125 2.981,-7.508 0,-3.414 -1.086,-6.207 -3.012,-8.133 -1.985,-1.957 -5.211,-3.011 -9.278,-3.011 -1.957,0 -3.539,0.062 -4.933,0.25 z"
         style="fill:#656263;fill-opacity:1;fill-rule:nonzero;stroke:none"
         id="path3821"
         inkscape:connector-curvature="0" /><path
         d="m 468.137,159.518 c 0.031,1.738 -0.711,4.437 -3.754,4.437 -2.793,0 -3.973,-2.543 -4.192,-4.437 z m -7.977,-1.953 c 0.063,-3.664 2.391,-5.184 5.125,-5.184 1.953,0 3.164,0.34 4.156,0.773 l 0.497,-1.953 c -0.961,-0.437 -2.637,-0.964 -5.028,-0.964 -4.594,0 -7.387,3.074 -7.387,7.574 0,4.531 2.7,8.101 7.079,8.101 4.902,0 6.175,-4.316 6.175,-7.078 0,-0.558 -0.031,-0.961 -0.093,-1.269 z"
         style="fill:#656263;fill-opacity:1;fill-rule:nonzero;stroke:none"
         id="path3823"
         inkscape:connector-curvature="0" /><path
         d="m 473.789,153.342 c 0.836,-0.496 2.266,-1.055 3.629,-1.055 1.957,0 2.887,0.961 2.887,2.235 0,1.304 -0.774,1.984 -2.762,2.73 -2.731,0.992 -4.004,2.485 -4.004,4.254 0,2.418 1.988,4.406 5.184,4.406 1.519,0 2.855,-0.402 3.664,-0.933 l -0.653,-1.953 c -0.589,0.339 -1.675,0.867 -3.074,0.867 -1.613,0 -2.48,-0.93 -2.48,-2.047 0,-1.242 0.867,-1.801 2.824,-2.574 2.574,-0.965 3.941,-2.27 3.941,-4.504 0,-2.668 -2.082,-4.531 -5.59,-4.531 -1.644,0 -3.164,0.437 -4.218,1.058 z"
         style="fill:#656263;fill-opacity:1;fill-rule:nonzero;stroke:none"
         id="path3825"
         inkscape:connector-curvature="0" /><path
         d="m 486.453,165.569 h 2.731 v -15.02 h -2.731 z m 1.305,2.546 c -0.996,0 -1.649,0.778 -1.649,1.676 0,0.961 0.684,1.707 1.707,1.707 0.996,0 1.68,-0.746 1.68,-1.707 0,-0.898 -0.652,-1.676 -1.707,-1.676 z"
         style="fill:#656263;fill-opacity:1;fill-rule:nonzero;stroke:none"
         id="path3827"
         inkscape:connector-curvature="0" /><path
         d="m 503.832,159.674 c 0,0.434 -0.031,0.836 -0.152,1.211 -0.5,1.613 -1.801,2.918 -3.821,2.918 -2.605,0 -4.468,-2.207 -4.468,-5.711 0,-2.918 1.519,-5.402 4.437,-5.402 1.707,0 3.231,1.054 3.789,2.824 0.153,0.433 0.215,0.961 0.215,1.461 z m 2.73,-6.922 c 0,-3.476 -0.71,-5.555 -2.14,-6.89 -1.488,-1.333 -3.598,-1.797 -5.492,-1.797 -1.801,0 -3.785,0.433 -4.996,1.238 l 0.683,2.109 c 0.992,-0.648 2.543,-1.207 4.406,-1.207 2.793,0 4.84,1.457 4.84,5.274 v 1.644 h -0.062 c -0.805,-1.394 -2.449,-2.511 -4.778,-2.511 -3.726,0 -6.394,3.164 -6.394,7.355 0,5.09 3.32,7.945 6.797,7.945 2.605,0 4.004,-1.336 4.687,-2.609 h 0.063 l 0.094,2.266 h 2.418 c -0.094,-1.055 -0.126,-2.297 -0.126,-4.094 z"
         style="fill:#656263;fill-opacity:1;fill-rule:nonzero;stroke:none"
         id="path3829"
         inkscape:connector-curvature="0" /><path
         d="m 510.879,161.506 c 0,1.582 -0.031,2.824 -0.121,4.063 h 2.418 l 0.156,-2.45 h 0.063 c 0.746,1.395 2.484,2.793 4.964,2.793 2.082,0 5.309,-1.242 5.309,-6.394 v -8.969 h -2.73 v 8.66 c 0,2.418 -0.903,4.469 -3.477,4.469 -1.77,0 -3.168,-1.274 -3.664,-2.793 -0.125,-0.344 -0.188,-0.84 -0.188,-1.273 v -9.063 h -2.73 z"
         style="fill:#656263;fill-opacity:1;fill-rule:nonzero;stroke:none"
         id="path3831"
         inkscape:connector-curvature="0" /></g></g></svg>